<svg version="1.1" viewBox="0.0 0.0 960.0 521.2808398950132" fill="none" stroke="none" stroke-linecap="square" stroke-miterlimit="10" xmlns:xlink="http://www.w3.org/1999/xlink" xmlns="http://www.w3.org/2000/svg"><clipPath id="p.0"><path d="m0 0l960.0 0l0 521.2808l-960.0 0l0 -521.2808z" clip-rule="nonzero"/></clipPath><g clip-path="url(#p.0)"><path fill="#000000" fill-opacity="0.0" d="m0 0l960.0 0l0 521.2808l-960.0 0z" fill-rule="evenodd"/><g filter="url(#shadowFilter-p.1)"><use xlink:href="#p.1" transform="matrix(1.0 0.0 0.0 1.0 0.0 2.0)"/></g><defs><filter id="shadowFilter-p.1" filterUnits="userSpaceOnUse"><feGaussianBlur in="SourceAlpha" stdDeviation="2.0" result="blur"/><feComponentTransfer in="blur" color-interpolation-filters="sRGB"><feFuncR type="linear" slope="0" intercept="0.0"/><feFuncG type="linear" slope="0" intercept="0.0"/><feFuncB type="linear" slope="0" intercept="0.0"/><feFuncA type="linear" slope="0.07" intercept="0"/></feComponentTransfer></filter></defs><g id="p.1"><defs><linearGradient id="p.2" gradientUnits="userSpaceOnUse" gradientTransform="matrix(18.370209798491786 0.0 0.0 18.370209798491786 0.0 0.0)" spreadMethod="pad" x1="26.244687029308157" y1="2.972828148785835" x2="13.257513646175633" y2="15.96505411499569"><stop offset="0.0" stop-color="#83a8c9"/><stop offset="1.0" stop-color="#aec7a2"/></linearGradient></defs><path fill="url(#p.2)" d="m305.90552 236.06601l0 0c0 -2.8559113 2.315155 -5.1710815 5.1710815 -5.1710815l342.2248 0c1.3713989 0 2.6867065 0.54481506 3.6564941 1.5145721c0.96972656 0.96977234 1.5145264 2.2850494 1.5145264 3.6565094l0 114.38226c0 2.855896 -2.3151245 5.1710815 -5.1710205 5.1710815l-342.2248 0c-2.8559265 0 -5.1710815 -2.3151855 -5.1710815 -5.1710815z" fill-rule="evenodd"/></g><g filter="url(#shadowFilter-p.3)"><use xlink:href="#p.3" transform="matrix(1.0 0.0 0.0 1.0 0.0 2.0)"/></g><defs><filter id="shadowFilter-p.3" filterUnits="userSpaceOnUse"><feGaussianBlur in="SourceAlpha" stdDeviation="2.0" result="blur"/><feComponentTransfer in="blur" color-interpolation-filters="sRGB"><feFuncR type="linear" slope="0" intercept="0.0"/><feFuncG type="linear" slope="0" intercept="0.0"/><feFuncB type="linear" slope="0" intercept="0.0"/><feFuncA type="linear" slope="0.1" intercept="0"/></feComponentTransfer></filter></defs><g id="p.3"><path fill="#ffebb0" d="m445.826 243.6669c-1.7717285 0 -3.2106323 0.4182129 -4.3167114 1.2546234c-1.1035461 0.8364105 -1.655304 1.9941406 -1.655304 3.4732056c0 0.99339294 0.240448 1.7991486 0.721344 2.4172516c0.48342896 0.6181183 1.0592346 1.0853729 1.7274475 1.4017944c0.67074585 0.31640625 1.5338135 0.63282776 2.589264 0.94924927c0.73147583 0.2109375 1.295929 0.3998108 1.6932983 0.56658936c0.39736938 0.16435242 0.73147583 0.37528992 1.0022888 0.63282776c0.27334595 0.25509644 0.41003418 0.5788727 0.41003418 0.97132874c0 0.46603394 -0.17211914 0.83151245 -0.5163269 1.096405c-0.34170532 0.26245117 -0.8074341 0.39367676 -1.3971558 0.39367676c-0.5770874 0 -1.0440674 -0.1545105 -1.40094 -0.463562c-0.35687256 -0.30908203 -0.56695557 -0.75671387 -0.630249 -1.3429413l-4.244568 0c0.03036499 1.0399933 0.32904053 1.9291534 0.8959961 2.6674652c0.5694885 0.73828125 1.3275452 1.2962952 2.2741394 1.6740417c0.9491577 0.37527466 2.02359 0.56292725 3.2233276 0.56292725c1.2275391 0 2.29187 -0.21829224 3.1929321 -0.6549072c0.90356445 -0.436615 1.5920105 -1.0240479 2.0653381 -1.7623596c0.47329712 -0.73828125 0.70996094 -1.5599976 0.70996094 -2.465088c0 -0.94924927 -0.24172974 -1.7255554 -0.7251587 -2.3289642c-0.480896 -0.60339355 -1.0516357 -1.0632935 -1.7122498 -1.379715c-0.660614 -0.31640625 -1.5198975 -0.64753723 -2.5778809 -0.99339294c-1.0554504 -0.33113098 -1.832489 -0.6401825 -2.3311157 -0.9271698c-0.4986267 -0.28697205 -0.7479248 -0.68678284 -0.7479248 -1.1994324c0 -0.46603394 0.14807129 -0.82292175 0.44418335 -1.0706482c0.29614258 -0.25019836 0.68466187 -0.37528992 1.1655579 -0.37528992c0.56188965 0 1.0213013 0.14717102 1.3781738 0.44151306c0.35687256 0.29434204 0.5505066 0.6978302 0.5808716 1.2104645l4.3167114 0c-0.07846069 -1.4937744 -0.6694641 -2.6588593 -1.7729797 -3.4952698c-1.1035461 -0.8364105 -2.5576477 -1.2546234 -4.3623047 -1.2546234z" fill-rule="evenodd"/><path fill="#ffebb0" d="m456.6256 241.65804c-0.69854736 0 -1.2693176 0.1999054 -1.7122498 0.5997162c-0.44293213 0.39735413 -0.6643982 0.8977356 -0.6643982 1.5011292c0 0.5886841 0.22146606 1.0829163 0.6643982 1.482727c0.44293213 0.39736938 1.0137024 0.5960388 1.7122498 0.5960388c0.6859131 0 1.2503662 -0.19866943 1.6932983 -0.5960388c0.44293213 -0.3998108 0.6643982 -0.89404297 0.6643982 -1.482727c0 -0.60339355 -0.22146606 -1.103775 -0.6643982 -1.5011292c-0.44293213 -0.3998108 -1.0073547 -0.5997162 -1.6932983 -0.5997162zm-2.0045776 5.493103l0 12.612442l3.9902039 0l0 -12.612442z" fill-rule="evenodd"/><path fill="#ffebb0" d="m467.61478 250.33736c0.7922058 0 1.4642029 0.27963257 2.0159912 0.8388672c0.5517578 0.5567932 0.8276367 1.3171692 0.8276367 2.281128c0 0.96395874 -0.2758789 1.7255707 -0.8276367 2.2848053c-0.55178833 0.5567932 -1.2237854 0.8352051 -2.0159912 0.8352051c-0.7947693 0 -1.4680176 -0.28207397 -2.0197754 -0.8462372c-0.55178833 -0.5666046 -0.82766724 -1.3318787 -0.82766724 -2.2958374c0 -0.9664154 0.2758789 -1.72435 0.82766724 -2.2737732c0.5517578 -0.5494385 1.2250061 -0.8241577 2.0197754 -0.8241577zm-1.169342 -3.3701782c-1.0706482 0 -2.042572 0.26490784 -2.915802 0.79470825c-0.8706665 0.527359 -1.5591125 1.2803802 -2.0653381 2.2590637c-0.5036926 0.9786682 -0.7555237 2.1167908 -0.7555237 3.4143372c0 1.2950897 0.25183105 2.4368744 0.7555237 3.4253693c0.5062256 0.98602295 1.1946716 1.7463989 2.0653381 2.281128c0.87323 0.534729 1.8451538 0.802063 2.915802 0.802063c0.9187622 0 1.7198486 -0.18395996 2.4032288 -0.5518799c0.6859131 -0.37036133 1.2225037 -0.84991455 1.6097412 -1.4385681l0 1.7880859c0 1.0105896 -0.24551392 1.7452087 -0.73651123 2.203888c-0.48849487 0.4586792 -1.144043 0.6880188 -1.9666443 0.6880188c-0.6859131 0 -1.2617493 -0.13983154 -1.7274475 -0.4194336c-0.46572876 -0.27719116 -0.7618408 -0.65737915 -0.8883972 -1.140564l-3.940857 0c0.17208862 1.5084839 0.8567505 2.703003 2.053955 3.5835571c1.1971741 0.8830261 2.7601013 1.3245239 4.6887817 1.3245239c1.445221 0 2.6538086 -0.27960205 3.6257324 -0.8388672c0.9719238 -0.5567932 1.6945496 -1.3061218 2.1678467 -2.2480164c0.4758606 -0.941864 0.71377563 -1.9929199 0.71377563 -3.1531067l0 -12.590347l-3.9902344 0l0 1.7844391c-0.3720398 -0.5886841 -0.9048462 -1.0633087 -1.5983582 -1.4238739c-0.690979 -0.36302185 -1.4958496 -0.54452515 -2.4146118 -0.54452515z" fill-rule="evenodd"/><path fill="#ffebb0" d="m485.27185 247.01501c-0.85549927 0 -1.6261902 0.1618805 -2.3121338 0.48565674c-0.6833801 0.32377625 -1.2262878 0.76405334 -1.6287231 1.3208466l0 -1.6703796l-3.9902039 0l0 12.612442l3.9902039 0l0 -6.850754c0 -0.84376526 0.22525024 -1.4986725 0.67578125 -1.9647064c0.450531 -0.4684906 1.0567322 -0.70274353 1.818573 -0.70274353c0.7618408 0 1.368042 0.23425293 1.818573 0.70274353c0.450531 0.46603394 0.67578125 1.1209412 0.67578125 1.9647064l0 6.850754l3.9674377 0l0 -7.369522c0 -1.6728363 -0.4555664 -2.9875488 -1.3667603 -3.9441528c-0.9086609 -0.956604 -2.124817 -1.4348907 -3.648529 -1.4348907z" fill-rule="evenodd"/><path fill="#ffebb0" d="m498.0078 243.89502l0 15.868561l3.9902344 0l0 -15.868561z" fill-rule="evenodd"/><path fill="#ffebb0" d="m512.8201 247.01501c-0.85549927 0 -1.6261902 0.1618805 -2.3121033 0.48565674c-0.68341064 0.32377625 -1.2263184 0.76405334 -1.6287537 1.3208466l0 -1.6703796l-3.9902039 0l0 12.612442l3.9902039 0l0 -6.850754c0 -0.84376526 0.22528076 -1.4986725 0.67581177 -1.9647064c0.450531 -0.4684906 1.0567017 -0.70274353 1.8185425 -0.70274353c0.76187134 0 1.3680725 0.23425293 1.818573 0.70274353c0.45056152 0.46603394 0.67578125 1.1209412 0.67578125 1.9647064l0 6.850754l3.9674683 0l0 -7.369522c0 -1.6728363 -0.45562744 -2.9875488 -1.3667603 -3.9441528c-0.9086914 -0.956604 -2.124878 -1.4348907 -3.6485596 -1.4348907z" fill-rule="evenodd"/></g><defs><linearGradient id="p.4" gradientUnits="userSpaceOnUse" gradientTransform="matrix(10.765625484876663 0.0 0.0 10.765625484876663 0.0 0.0)" spreadMethod="pad" x1="47.430703096715796" y1="0.4865041908008785" x2="39.81821396302601" y2="8.098908625017502"><stop offset="0.0" stop-color="#83a8c9"/><stop offset="1.0" stop-color="#aec7a2"/></linearGradient></defs><path fill="url(#p.4)" d="m469.51837 87.19027l0 0c0 -22.56105 18.40216 -40.850395 41.102356 -40.850395q20.551208 0 41.102356 0q0 20.425201 0 40.850395l0 0c0 22.56105 -18.40216 40.850395 -41.102356 40.850395l0 0c-22.700195 0 -41.102356 -18.289345 -41.102356 -40.850395z" fill-rule="evenodd"/><path fill="#96aa8c" d="m408.12598 78.451584l0 0c0 -22.56105 18.40216 -40.850395 41.102356 -40.850395q20.551208 0 41.102386 0q0 20.425194 0 40.850395l0 0c0 22.56105 -18.40216 40.850388 -41.102386 40.850388l0 0c-22.700195 0 -41.102356 -18.289337 -41.102356 -40.850388z" fill-rule="evenodd"/><path fill="#fff0c4" d="m474.20996 150.67688l0 0c0 -22.56105 18.40216 -40.850403 41.102356 -40.850403q20.551208 0 41.102356 0q0 20.425201 0 40.850403l0 0c0 22.56105 -18.4021 40.850388 -41.102356 40.850388l0 0c-22.700195 0 -41.102356 -18.289337 -41.102356 -40.850388z" fill-rule="evenodd"/><path fill="#8bbe84" d="m873.6775 443.2631l-3.1455078 25.74176c-0.072021484 0.5891113 -0.37530518 1.127533 -0.8432007 1.4968262c-0.4678955 0.3692627 -1.0620117 0.5391846 -1.6517334 0.47232056l-23.193848 -2.6297913l0 0c-14.037598 -1.5916138 -24.028137 -14.2499695 -22.314575 -28.273193l3.1455688 -25.74179c0.14990234 -1.2267456 1.2669067 -2.108368 2.494873 -1.9691162l23.193848 2.6297607l0 0c14.037598 1.5916443 24.028198 14.2499695 22.314575 28.273224z" fill-rule="evenodd"/><path fill="#96aa8c" d="m895.0026 447.29095l-10.979004 10.576599c-0.27911377 0.2689209 -0.6575928 0.41986084 -1.052124 0.41958618c-0.39453125 -2.4414062E-4 -0.7727661 -0.15167236 -1.0515747 -0.42095947l-14.617493 -14.118591c-6.6364136 -6.4099426 -6.6296387 -16.795502 0.015136719 -23.196777l10.979004 -10.57663c0.5812988 -0.55996704 1.5231323 -0.5593567 2.1036987 0.001373291l14.617493 14.118591l0 0c6.6364746 6.409973 6.6296997 16.795532 -0.015136719 23.196808z" fill-rule="evenodd"/><path fill="#798a71" d="m724.2524 521.1754l0 0c-0.39892578 -30.365814 13.627136 -59.60437 38.95233 -81.19934c25.325134 -21.59497 59.844666 -33.751648 95.865295 -33.76071l0.001953125 5.473572l0 0c-34.56073 0.008544922 -67.68109 11.581268 -91.97882 32.138733c-24.29773 20.557465 -37.753235 48.39096 -37.36743 77.29666z" fill-rule="evenodd"/><path fill="#8bbe84" d="m86.181114 202.14392l-7.7743835 7.486969c-0.19766998 0.19036865 -0.46564484 0.29719543 -0.7449875 0.2969818c-0.27933502 -2.1362305E-4 -0.54714966 -0.10745239 -0.7445297 -0.29811096l-10.181648 -9.835114c-4.6984024 -4.5384827 -4.6928177 -11.891037 0.01247406 -16.422379l7.7743835 -7.4869843c0.4116211 -0.39639282 1.0784988 -0.39588928 1.4895096 0.0011444092l10.181656 9.835114l0 0c4.6984024 4.5384827 4.6928177 11.891037 -0.01247406 16.422379z" fill-rule="evenodd"/><path fill="#aec7a2" d="m92.97666 214.09235l-7.7887497 0c-0.1980362 0 -0.3879547 -0.07867432 -0.5279846 -0.21870422c-0.1400299 -0.1400299 -0.2186966 -0.3299408 -0.2186966 -0.5279846l0 -10.5289c0 -4.7139893 3.8214417 -8.535446 8.535431 -8.535446l7.7887573 0c0.4123764 0 0.7466812 0.3343048 0.7466812 0.74668884l0 10.528915l0 0c0 4.7139893 -3.8214493 8.535431 -8.535439 8.535431z" fill-rule="evenodd"/><path fill="#96aa8c" d="m80.66826 260.42847l-9.613792 3.003418c-0.24443817 0.0763855 -0.5112457 0.05316162 -0.74173737 -0.06448364c-0.23049164 -0.11767578 -0.4057846 -0.3201599 -0.48731232 -0.5628967l-4.587967 -13.660812c-1.9407692 -5.7786865 1.2028046 -11.936829 7.0213623 -13.754578l9.613792 -3.003418c0.5090027 -0.15901184 1.0592728 0.12188721 1.2290497 0.62739563l4.587967 13.660797l0 0c1.9407654 5.778702 -1.2028046 11.936829 -7.0213623 13.754578z" fill-rule="evenodd"/><path fill="#798a71" d="m959.42255 411.65326l-100.47241 0l0 -5.3543396l100.47241 0z" fill-rule="evenodd"/><path fill="#798a71" d="m-0.18542792 190.2833l0 0c31.460506 -0.3589325 61.743187 13.210449 84.09699 37.68306c22.353813 24.472626 34.920357 57.81392 34.898117 92.59102l-5.5591965 -0.0043640137c0.021095276 -33.29303 -11.95311 -65.21146 -33.253 -88.639145c-21.299885 -23.427689 -50.15457 -36.416855 -80.13101 -36.07161z" fill-rule="evenodd"/><path fill="#798a71" d="m113.2664 521.17847l0 -201.6063l5.5433044 0l0 201.6063z" fill-rule="evenodd"/><path fill="#798a71" d="m146.69948 521.17975l0 -201.60632l5.5433044 0l0 201.60632z" fill-rule="evenodd"/><path fill="#798a71" d="m-0.22412978 190.2789l0 0c40.372124 -0.16679382 79.15773 13.427139 107.774666 37.77385c28.616928 24.346695 44.705826 57.43889 44.70668 91.95418l-5.2956696 9.1552734E-5l0 0c-8.239746E-4 -33.105743 -15.527664 -64.84653 -43.14499 -88.199295c-27.617325 -23.352768 -65.04828 -36.392227 -104.01076 -36.23323z" fill-rule="evenodd"/><path fill="#96aa8c" d="m119.57748 19.43085l69.66929 0l0 5.35433l-69.66929 0z" fill-rule="evenodd"/><path fill="#aec7a2" d="m0 74.09769l66.74016 0l0 5.354332l-66.74016 0z" fill-rule="evenodd"/><path fill="#96aa8c" d="m217.76064 -0.067862004l0 0c0.07891846 13.614205 -12.870071 24.717306 -28.956879 24.82904l-0.051452637 -5.305708l0 0c13.168396 -0.08423424 23.76976 -8.806556 23.702438 -19.501305z" fill-rule="evenodd"/><path fill="#aec7a2" d="m0 85.19777l66.74016 0l0 5.354332l-66.74016 0z" fill-rule="evenodd"/><path fill="#8bbe84" d="m206.49641 64.92528l-3.1455383 25.74179c-0.07199097 0.5891037 -0.37528992 1.1275177 -0.8431854 1.4968033c-0.46788025 0.36928558 -1.0620422 0.53917694 -1.6517487 0.47232056l-23.193817 -2.6297836l0 0c-14.037598 -1.591629 -24.028183 -14.2499695 -22.314606 -28.273205l3.1455383 -25.741787c0.14990234 -1.2267494 1.266922 -2.1083565 2.494934 -1.9691238l23.193817 2.6297836l0 0c14.037598 1.5916252 24.028198 14.249966 22.314606 28.273201z" fill-rule="evenodd"/><path fill="#aec7a2" d="m159.52493 72.07212l-10.978989 10.576614c-0.2791443 0.26891327 -0.65760803 0.41984558 -1.052124 0.41958618c-0.394516 -2.593994E-4 -0.7727814 -0.15168 -1.0515747 -0.42095947l-14.617493 -14.118599c-6.6364517 -6.409954 -6.629677 -16.795513 0.015136719 -23.196796l10.978989 -10.576611c0.58128357 -0.5599823 1.5231476 -0.55936813 2.1036987 0.001373291l14.617493 14.118599l0 0c6.636444 6.409954 6.629669 16.79551 -0.015136719 23.196793z" fill-rule="evenodd"/><path fill="#96aa8c" d="m118.74808 30.528399l70.519684 0l0 5.35433l-70.519684 0z" fill-rule="evenodd"/><path fill="#aec7a2" d="m95.945625 49.325386l0 0c0.031402588 7.994438 -3.04068 15.671455 -8.535103 21.328865c-5.4944153 5.6574097 -12.957146 8.827721 -20.73352 8.807999l0.01335144 -5.5660706l0 0c6.293846 0.016166687 12.333885 -2.5661163 16.780914 -7.1742935c4.447029 -4.608181 6.9335785 -10.861473 6.9083176 -17.373394z" fill-rule="evenodd"/><defs><linearGradient id="p.5" gradientUnits="userSpaceOnUse" gradientTransform="matrix(5.410090584757182 0.0 0.0 5.410090584757182 0.0 0.0)" spreadMethod="pad" x1="22.11377361994652" y1="3.589096453710505" x2="16.70368303533053" y2="3.589057367417855"><stop offset="0.0" stop-color="#96aa8c"/><stop offset="1.0" stop-color="#aec7a2"/></linearGradient></defs><path fill="url(#p.5)" d="m90.368675 49.5543l0 0c-0.031402588 -7.994438 3.0406876 -15.671455 8.535103 -21.328865c5.494423 -5.6574097 12.957153 -8.827723 20.733528 -8.808002l-0.01335907 5.5660706l0 0c-6.293846 -0.01616478 -12.333885 2.5661163 -16.780907 7.1742973c-4.447029 4.608181 -6.9335785 10.861473 -6.908325 17.373394z" fill-rule="evenodd"/><path fill="#aec7a2" d="m95.08523 60.423885l0 0c0.031402588 7.994442 -3.04068 15.671452 -8.535103 21.328861c-5.494423 5.6574097 -12.957153 8.827728 -20.733528 8.808006l0.01335907 -5.5660706l0 0c6.293846 0.016166687 12.333885 -2.5661163 16.780914 -7.1742935c4.4470215 -4.608185 6.933571 -10.861481 6.9083176 -17.373394z" fill-rule="evenodd"/><defs><linearGradient id="p.6" gradientUnits="userSpaceOnUse" gradientTransform="matrix(5.41009058475804 0.0 0.0 5.41009058475804 0.0 0.0)" spreadMethod="pad" x1="21.95473741731616" y1="5.640541470985905" x2="16.54464683270103" y2="5.640502147806632"><stop offset="0.0" stop-color="#96aa8c"/><stop offset="1.0" stop-color="#aec7a2"/></linearGradient></defs><path fill="url(#p.6)" d="m89.50828 60.6528l0 0c-0.031402588 -7.994442 3.04068 -15.671455 8.535103 -21.328865c5.4944153 -5.6574097 12.957146 -8.827724 20.73352 -8.808006l-0.01335144 5.5660706l0 0c-6.293846 -0.016162872 -12.333885 2.5661163 -16.780914 7.1742973c-4.447029 4.608181 -6.933571 10.861477 -6.9083176 17.373394z" fill-rule="evenodd"/><path fill="#96aa8c" d="m229.88396 -0.020605018l0 0c0.058914185 9.4786415 -4.497055 18.58734 -12.663635 25.318232c-8.16658 6.730892 -19.273285 10.53138 -30.871857 10.563709l-0.022338867 -5.3522205l0 0c10.179321 -0.026628494 19.927246 -3.257658 27.094315 -8.980625c7.1670685 -5.722968 11.164658 -13.467856 11.111282 -21.526875z" fill-rule="evenodd"/><path fill="#8bbe84" d="m890.958 41.326973l-161.7008 0l0 5.354332l161.7008 0z" fill-rule="evenodd"/><path fill="#8bbe84" d="m700.9813 21.868803l0 0c-0.038024902 6.5597134 3.0078125 12.862993 8.4661255 17.520578c5.458374 4.657589 12.881165 7.287163 20.632507 7.3091545l0.0211792 -5.359764c-6.329773 -0.016521454 -12.391541 -2.0759354 -16.848694 -5.7241554c-4.4572144 -3.6482162 -6.9437256 -8.585627 -6.911377 -13.723562z" fill-rule="evenodd"/><g filter="url(#shadowFilter-p.7)"><use xlink:href="#p.7" transform="matrix(1.0 0.0 0.0 1.0 0.0 2.0)"/></g><defs><filter id="shadowFilter-p.7" filterUnits="userSpaceOnUse"><feGaussianBlur in="SourceAlpha" stdDeviation="2.0" result="blur"/><feComponentTransfer in="blur" color-interpolation-filters="sRGB"><feFuncR type="linear" slope="0" intercept="0.0"/><feFuncG type="linear" slope="0" intercept="0.0"/><feFuncB type="linear" slope="0" intercept="0.0"/><feFuncA type="linear" slope="0.1" intercept="0"/></feComponentTransfer></filter></defs><g id="p.7"><path fill="#8bbe84" d="m845.00525 52.424526l-116.09448 0l0 5.354328l116.09448 0z" fill-rule="evenodd"/></g><path fill="#8bbe84" d="m688.85803 21.91606l0 0c-0.05895996 9.478643 4.4970093 18.58734 12.663635 25.318232c8.166565 6.730892 19.273254 10.53138 30.871826 10.563709l0.022338867 -5.3522224l0 0c-10.179321 -0.026626587 -19.927246 -3.257656 -27.0943 -8.980621c-7.167053 -5.722969 -11.164673 -13.467857 -11.111267 -21.526876z" fill-rule="evenodd"/><path fill="#8bbe84" d="m694.40027 -0.0025335958l-5.543335 0l0 22.425196l5.543335 0z" fill-rule="evenodd"/><path fill="#8bbe84" d="m706.5236 -0.124150656l-5.543335 0l0 22.425198l5.543335 0z" fill-rule="evenodd"/><path fill="#8bbe84" d="m920.9764 77.27438l0 0c0.038024902 -6.5597153 -3.0078125 -12.862991 -8.466187 -17.52058c-5.458313 -4.657585 -12.881165 -7.287159 -20.632446 -7.3091545l-0.021240234 5.359764c6.329773 0.016525269 12.391541 2.0759392 16.848755 5.7241554c4.4571533 3.64822 6.9437256 8.5856285 6.911316 13.72356z" fill-rule="evenodd"/><path fill="#8bbe84" d="m933.0997 77.22713l0 0c0.058898926 -9.478645 -4.4970703 -18.587341 -12.663635 -25.318233c-8.166565 -6.730892 -19.273315 -10.53138 -30.871826 -10.563705l-0.022338867 5.3522186l0 0c10.17926 0.026630402 19.927185 3.257656 27.0943 8.980625c7.167053 5.722969 11.164673 13.467857 11.111267 21.52687z" fill-rule="evenodd"/><path fill="#8bbe84" d="m915.43304 77.00636l0 329.25983l5.543335 0l0 -329.25983z" fill-rule="evenodd"/><path fill="#8bbe84" d="m927.55646 77.00636l0 329.22833l5.543274 0l0 -329.22833z" fill-rule="evenodd"/><path fill="#8bbe84" d="m244.5197 360.90732l-7.7743835 7.486969c-0.19767761 0.19033813 -0.46565247 0.29718018 -0.74497986 0.29696655c-0.27934265 -2.1362305E-4 -0.5471649 -0.10745239 -0.74453735 -0.2980957l-10.181656 -9.835114c-4.698395 -4.5384827 -4.69281 -11.891052 0.012481689 -16.422394l7.7743835 -7.486969c0.4116211 -0.39639282 1.0784912 -0.39590454 1.4895172 0.0011291504l10.181641 9.835114l0 0c4.69841 4.5384827 4.6928253 11.891022 -0.012466431 16.422394z" fill-rule="evenodd"/><path fill="#aec7a2" d="m220.34015 355.67426l-7.70253 1.1208801c-0.19584656 0.028503418 -0.39587402 -0.021820068 -0.55610657 -0.13989258c-0.16021729 -0.11810303 -0.2675171 -0.294281 -0.29826355 -0.4897766l-1.6451874 -10.458679c-0.7320404 -4.6536865 2.453659 -8.976196 7.1154633 -9.654572l7.702545 -1.1209106c0.4078064 -0.059326172 0.7903137 0.22259521 0.85435486 0.6296997l1.6451874 10.458679l0 0c0.7320404 4.653656 -2.453659 8.976166 -7.1154633 9.654572z" fill-rule="evenodd"/><path fill="#aec7a2" d="m184.84842 350.97507l-4.023712 6.4379272c-0.10231018 0.16369629 -0.26670837 0.282135 -0.4570465 0.32928467c-0.19033813 0.04714966 -0.39102173 0.019104004 -0.55789185 -0.07791138l-9.784637 -5.6887207c-3.97229 -2.3094788 -5.218292 -7.3403625 -2.78302 -11.236786l4.023712 -6.437958c0.21304321 -0.34085083 0.66744995 -0.45339966 1.0149384 -0.2513733l9.784637 5.688751l0 0c3.97229 2.3094788 5.218292 7.3403625 2.78302 11.236786z" fill-rule="evenodd"/><path fill="#798a71" d="m146.70201 360.81018l0 0c-0.031402588 -7.9944153 3.04068 -15.671448 8.535095 -21.328857c5.4944305 -5.6574097 12.957153 -8.827728 20.733536 -8.808014l-0.013366699 5.5660706l0 0c-6.2938385 -0.016143799 -12.333878 2.5661316 -16.7809 7.1743164c-4.4470367 4.608185 -6.9335785 10.861481 -6.908325 17.373383z" fill-rule="evenodd"/><path fill="#798a71" d="m175.88007 330.68674l63.62204 0l0 5.3543396l-63.62204 0z" fill-rule="evenodd"/><path fill="#96aa8c" d="m87.87561 443.7167l-9.6138 3.0033875c-0.24443054 0.0763855 -0.5112381 0.05316162 -0.74172974 -0.06448364c-0.23049164 -0.11767578 -0.4057846 -0.3201294 -0.48731995 -0.5628967l-4.587967 -13.660797c-1.9407654 -5.7786865 1.2028046 -11.936829 7.0213623 -13.754608l9.613792 -3.0033875c0.5090103 -0.1590271 1.0592728 0.12185669 1.2290573 0.6273804l4.5879593 13.660797l0 0c1.940773 5.7786865 -1.2027969 11.936829 -7.0213547 13.754608z" fill-rule="evenodd"/><path fill="#798a71" d="m118.81177 441.7767l0 0c0.031402588 -7.994446 -3.04068 -15.671448 -8.535103 -21.328857c-5.4944153 -5.6574097 -12.957146 -8.827728 -20.73352 -8.808014l0.01335144 5.5660706l0 0c6.293846 -0.016174316 12.333885 2.5661316 16.780914 7.1743164c4.447029 4.6081543 6.933571 10.86145 6.9083176 17.373383z" fill-rule="evenodd"/><path fill="#798a71" d="m26.745712 411.65326l63.622047 0l0 5.3543396l-63.622047 0z" fill-rule="evenodd"/><path fill="#8bbe84" d="m892.1391 52.424526l-47.93701 0l0 5.354328l47.93701 0z" fill-rule="evenodd"/><path fill="#a28e64" d="m175.40677 330.78003l-5.7637787 0.57766724l3.3070831 -20.370117z" fill-rule="evenodd"/><path fill="#a28e64" d="m224.2515 306.5623l17.70079 -28.426971l-42.771652 14.98877z" fill-rule="evenodd"/><path fill="#a28e64" d="m206.82556 289.35617l8.976364 -5.259735l1.7952881 2.64505l-8.976379 5.2597656z" fill-rule="evenodd"/><path fill="#a28e64" d="m205.8749 311.0414l3.4015656 -23.106384l-36.91339 18.758728z" fill-rule="evenodd"/><path fill="#a28e64" d="m227.59381 296.96408l1.0393677 22.86319l-39.496063 -21.40384z" fill-rule="evenodd"/><path fill="#a28e64" d="m219.8595 330.4752l-26.992126 -23.015198l35.779526 14.198273z" fill-rule="evenodd"/><path fill="#a28e64" d="m172.12917 305.1391l47.936996 -4.682068l-44.94487 29.977509z" fill-rule="evenodd"/><path fill="#a28e64" d="m175.61375 307.3785l-4.692917 -4.3780518l10.519684 -1.0641174z" fill-rule="evenodd"/><path fill="#a28e64" d="m172.50856 306.05768l-7.496063 -10.793121l12.566925 8.664886z" fill-rule="evenodd"/><path fill="#a28e64" d="m167.27464 295.02957l-1.7637787 -6.354248l-0.53544617 6.5670776z" fill-rule="evenodd"/><path fill="#a28e64" d="m166.2531 291.33902l0.22047424 -7.0231323l-1.7637787 6.7495117z" fill-rule="evenodd"/><path fill="#a28e64" d="m164.55891 290.46237l1.448822 -0.060791016l0.18896484 4.864502l-1.448822 0.060791016z" fill-rule="evenodd"/><path fill="#a28e64" d="m165.01018 295.21393l1.6062927 -1.0640869l4.0944977 5.320526l-1.606308 1.0641174z" fill-rule="evenodd"/><path fill="#a28e64" d="m165.2211 289.53326l0.9133911 0.60806274l-0.69291687 0.9425049l-0.91337585 -0.60806274z" fill-rule="evenodd"/><path fill="#a28e64" d="m165.61235 294.17804l1.1968536 0.7600708l-0.881897 1.1553345l-1.1968384 -0.7600708z" fill-rule="evenodd"/><path fill="#a28e64" d="m165.68898 275.94193l1.4173279 0.15203857l-1.1653595 14.07663l-1.4173126 -0.15200806z" fill-rule="evenodd"/><path fill="#a28e64" d="m164.55817 289.94785l1.4488068 0l0 1.3681335l-1.4488068 0z" fill-rule="evenodd"/><path fill="#a28e64" d="m175.21437 330.43127l15.401581 0.36483765l-15.149612 -10.823517z" fill-rule="evenodd"/><path fill="#a28e64" d="m218.30669 330.87115l20.220474 0.4864502l-19.905502 -14.441498z" fill-rule="evenodd"/><path fill="#a28e64" d="m194.17163 306.0702l17.606293 -0.63845825l0.5354309 11.2187805l-17.606293 0.63845825z" fill-rule="evenodd"/><path fill="#a28e64" d="m247.15294 285.69562l-15.908844 14.848938l-20.721008 -6.913727l3.1025696 -19.121826l22.638489 -4.904236z" fill-rule="evenodd"/><path fill="#a28e64" d="m215.98062 319.12415l11.968506 -2.1890259l2.551178 10.975525l-11.968506 2.1890259z" fill-rule="evenodd"/><path fill="#a28e64" d="m207.09306 314.37805l8.283463 -7.9960327l11.496063 9.424988l-8.283463 7.9960327z" fill-rule="evenodd"/><path fill="#a28e64" d="m195.47151 275.46454l0 0c0.29600525 0.2631836 0.80389404 0.29956055 1.1343842 0.08129883l0 0l0 0c0.15872192 -0.10482788 0.25445557 -0.25558472 0.26617432 -0.41906738c0.01171875 -0.16348267 -0.061553955 -0.32632446 -0.20370483 -0.45269775l-8.502884 -7.559845c-0.29600525 -0.2631836 -0.8038788 -0.29956055 -1.1343842 -0.08129883l0 0l0 0c-0.33050537 0.21829224 -0.35845947 0.60861206 -0.062454224 0.87176514z" fill-rule="evenodd"/><path fill="#a28e64" d="m180.45569 265.2493l0.4409485 1.2161255l-7.244095 2.3106384l-0.4409485 -1.2161255z" fill-rule="evenodd"/><path fill="#a28e64" d="m173.20695 267.49353l1.102356 0.7904663l-7.5590515 8.512878l-1.102356 -0.7904663z" fill-rule="evenodd"/><path fill="#a28e64" d="m187.87473 266.96384l-0.34646606 1.246521l-7.464569 -1.7329712l0.34646606 -1.246521z" fill-rule="evenodd"/><path fill="#fae8c2" d="m244.89929 285.3263l-12.449081 12.934692l-17.598099 -4.7866516l1.572876 -15.893005l18.570175 -5.0357666z" fill-rule="evenodd"/><path fill="#666666" d="m227.2199 282.60107l-5.1176605 -3.4705505l-1.9689636 5.4163513z" fill-rule="evenodd"/><path fill="#666666" d="m236.15117 283.0581l-3.782837 -4.806946l-3.5872345 4.5637207z" fill-rule="evenodd"/><path fill="#4da6ce" d="m-1.1784776 4.750656E-4l960.0 0l0 521.2913l-960.0 0z" fill-rule="evenodd"/><g filter="url(#shadowFilter-p.8)"><use xlink:href="#p.8" transform="matrix(1.0 0.0 0.0 1.0 0.0 2.0)"/></g><defs><filter id="shadowFilter-p.8" filterUnits="userSpaceOnUse"><feGaussianBlur in="SourceAlpha" stdDeviation="2.0" result="blur"/><feComponentTransfer in="blur" color-interpolation-filters="sRGB"><feFuncR type="linear" slope="0" intercept="0.0"/><feFuncG type="linear" slope="0" intercept="0.0"/><feFuncB type="linear" slope="0" intercept="0.0"/><feFuncA type="linear" slope="0.1" intercept="0"/></feComponentTransfer></filter></defs><g id="p.8"><path fill="#397c9b" d="m960.6982 0.0025335958l0 521.81854l-238.29346 0c0 -260.90927 -90.79419 -260.90927 -39.206543 -521.81854z" fill-rule="evenodd"/></g><g filter="url(#shadowFilter-p.9)"><use xlink:href="#p.9" transform="matrix(1.0 0.0 0.0 1.0 0.0 2.0)"/></g><defs><filter id="shadowFilter-p.9" filterUnits="userSpaceOnUse"><feGaussianBlur in="SourceAlpha" stdDeviation="2.0" result="blur"/><feComponentTransfer in="blur" color-interpolation-filters="sRGB"><feFuncR type="linear" slope="0" intercept="0.0"/><feFuncG type="linear" slope="0" intercept="0.0"/><feFuncB type="linear" slope="0" intercept="0.0"/><feFuncA type="linear" slope="0.1" intercept="0"/></feComponentTransfer></filter></defs><g id="p.9"><path fill="#397c9b" d="m-0.69816273 521.8205l0 -521.81854l232.89679 0c0 260.9093 88.73796 260.9093 38.31868 521.81854z" fill-rule="evenodd"/></g><g filter="url(#shadowFilter-p.10)"><use xlink:href="#p.10" transform="matrix(1.0 0.0 0.0 1.0 0.0 2.0)"/></g><defs><filter id="shadowFilter-p.10" filterUnits="userSpaceOnUse"><feGaussianBlur in="SourceAlpha" stdDeviation="2.0" result="blur"/><feComponentTransfer in="blur" color-interpolation-filters="sRGB"><feFuncR type="linear" slope="0" intercept="0.0"/><feFuncG type="linear" slope="0" intercept="0.0"/><feFuncB type="linear" slope="0" intercept="0.0"/><feFuncA type="linear" slope="0.07" intercept="0"/></feComponentTransfer></filter></defs><g id="p.10"><defs><linearGradient id="p.11" gradientUnits="userSpaceOnUse" gradientTransform="matrix(18.370209798491786 0.0 0.0 18.370209798491786 0.0 0.0)" spreadMethod="pad" x1="26.244687029308157" y1="2.972828148785835" x2="13.257513646175633" y2="15.96505411499569"><stop offset="0.0" stop-color="#83a8c9"/><stop offset="1.0" stop-color="#aec7a2"/></linearGradient></defs><path fill="url(#p.11)" d="m305.90552 236.06601l0 0c0 -2.8559113 2.315155 -5.1710815 5.1710815 -5.1710815l342.2248 0c1.3713989 0 2.6867065 0.54481506 3.6564941 1.5145721c0.96972656 0.96977234 1.5145264 2.2850494 1.5145264 3.6565094l0 114.38226c0 2.855896 -2.3151245 5.1710815 -5.1710205 5.1710815l-342.2248 0c-2.8559265 0 -5.1710815 -2.3151855 -5.1710815 -5.1710815z" fill-rule="evenodd"/></g><g filter="url(#shadowFilter-p.12)"><use xlink:href="#p.12" transform="matrix(1.0 0.0 0.0 1.0 0.0 2.0)"/></g><defs><filter id="shadowFilter-p.12" filterUnits="userSpaceOnUse"><feGaussianBlur in="SourceAlpha" stdDeviation="2.0" result="blur"/><feComponentTransfer in="blur" color-interpolation-filters="sRGB"><feFuncR type="linear" slope="0" intercept="0.0"/><feFuncG type="linear" slope="0" intercept="0.0"/><feFuncB type="linear" slope="0" intercept="0.0"/><feFuncA type="linear" slope="0.1" intercept="0"/></feComponentTransfer></filter></defs><g id="p.12"><path fill="#ffebb0" d="m445.826 243.6669c-1.7717285 0 -3.2106323 0.4182129 -4.3167114 1.2546234c-1.1035461 0.8364105 -1.655304 1.9941406 -1.655304 3.4732056c0 0.99339294 0.240448 1.7991486 0.721344 2.4172516c0.48342896 0.6181183 1.0592346 1.0853729 1.7274475 1.4017944c0.67074585 0.31640625 1.5338135 0.63282776 2.589264 0.94924927c0.73147583 0.2109375 1.295929 0.3998108 1.6932983 0.56658936c0.39736938 0.16435242 0.73147583 0.37528992 1.0022888 0.63282776c0.27334595 0.25509644 0.41003418 0.5788727 0.41003418 0.97132874c0 0.46603394 -0.17211914 0.83151245 -0.5163269 1.096405c-0.34170532 0.26245117 -0.8074341 0.39367676 -1.3971558 0.39367676c-0.5770874 0 -1.0440674 -0.1545105 -1.40094 -0.463562c-0.35687256 -0.30908203 -0.56695557 -0.75671387 -0.630249 -1.3429413l-4.244568 0c0.03036499 1.0399933 0.32904053 1.9291534 0.8959961 2.6674652c0.5694885 0.73828125 1.3275452 1.2962952 2.2741394 1.6740417c0.9491577 0.37527466 2.02359 0.56292725 3.2233276 0.56292725c1.2275391 0 2.29187 -0.21829224 3.1929321 -0.6549072c0.90356445 -0.436615 1.5920105 -1.0240479 2.0653381 -1.7623596c0.47329712 -0.73828125 0.70996094 -1.5599976 0.70996094 -2.465088c0 -0.94924927 -0.24172974 -1.7255554 -0.7251587 -2.3289642c-0.480896 -0.60339355 -1.0516357 -1.0632935 -1.7122498 -1.379715c-0.660614 -0.31640625 -1.5198975 -0.64753723 -2.5778809 -0.99339294c-1.0554504 -0.33113098 -1.832489 -0.6401825 -2.3311157 -0.9271698c-0.4986267 -0.28697205 -0.7479248 -0.68678284 -0.7479248 -1.1994324c0 -0.46603394 0.14807129 -0.82292175 0.44418335 -1.0706482c0.29614258 -0.25019836 0.68466187 -0.37528992 1.1655579 -0.37528992c0.56188965 0 1.0213013 0.14717102 1.3781738 0.44151306c0.35687256 0.29434204 0.5505066 0.6978302 0.5808716 1.2104645l4.3167114 0c-0.07846069 -1.4937744 -0.6694641 -2.6588593 -1.7729797 -3.4952698c-1.1035461 -0.8364105 -2.5576477 -1.2546234 -4.3623047 -1.2546234z" fill-rule="evenodd"/><path fill="#ffebb0" d="m456.6256 241.65804c-0.69854736 0 -1.2693176 0.1999054 -1.7122498 0.5997162c-0.44293213 0.39735413 -0.6643982 0.8977356 -0.6643982 1.5011292c0 0.5886841 0.22146606 1.0829163 0.6643982 1.482727c0.44293213 0.39736938 1.0137024 0.5960388 1.7122498 0.5960388c0.6859131 0 1.2503662 -0.19866943 1.6932983 -0.5960388c0.44293213 -0.3998108 0.6643982 -0.89404297 0.6643982 -1.482727c0 -0.60339355 -0.22146606 -1.103775 -0.6643982 -1.5011292c-0.44293213 -0.3998108 -1.0073547 -0.5997162 -1.6932983 -0.5997162zm-2.0045776 5.493103l0 12.612442l3.9902039 0l0 -12.612442z" fill-rule="evenodd"/><path fill="#ffebb0" d="m467.61478 250.33736c0.7922058 0 1.4642029 0.27963257 2.0159912 0.8388672c0.5517578 0.5567932 0.8276367 1.3171692 0.8276367 2.281128c0 0.96395874 -0.2758789 1.7255707 -0.8276367 2.2848053c-0.55178833 0.5567932 -1.2237854 0.8352051 -2.0159912 0.8352051c-0.7947693 0 -1.4680176 -0.28207397 -2.0197754 -0.8462372c-0.55178833 -0.5666046 -0.82766724 -1.3318787 -0.82766724 -2.2958374c0 -0.9664154 0.2758789 -1.72435 0.82766724 -2.2737732c0.5517578 -0.5494385 1.2250061 -0.8241577 2.0197754 -0.8241577zm-1.169342 -3.3701782c-1.0706482 0 -2.042572 0.26490784 -2.915802 0.79470825c-0.8706665 0.527359 -1.5591125 1.2803802 -2.0653381 2.2590637c-0.5036926 0.9786682 -0.7555237 2.1167908 -0.7555237 3.4143372c0 1.2950897 0.25183105 2.4368744 0.7555237 3.4253693c0.5062256 0.98602295 1.1946716 1.7463989 2.0653381 2.281128c0.87323 0.534729 1.8451538 0.802063 2.915802 0.802063c0.9187622 0 1.7198486 -0.18395996 2.4032288 -0.5518799c0.6859131 -0.37036133 1.2225037 -0.84991455 1.6097412 -1.4385681l0 1.7880859c0 1.0105896 -0.24551392 1.7452087 -0.73651123 2.203888c-0.48849487 0.4586792 -1.144043 0.6880188 -1.9666443 0.6880188c-0.6859131 0 -1.2617493 -0.13983154 -1.7274475 -0.4194336c-0.46572876 -0.27719116 -0.7618408 -0.65737915 -0.8883972 -1.140564l-3.940857 0c0.17208862 1.5084839 0.8567505 2.703003 2.053955 3.5835571c1.1971741 0.8830261 2.7601013 1.3245239 4.6887817 1.3245239c1.445221 0 2.6538086 -0.27960205 3.6257324 -0.8388672c0.9719238 -0.5567932 1.6945496 -1.3061218 2.1678467 -2.2480164c0.4758606 -0.941864 0.71377563 -1.9929199 0.71377563 -3.1531067l0 -12.590347l-3.9902344 0l0 1.7844391c-0.3720398 -0.5886841 -0.9048462 -1.0633087 -1.5983582 -1.4238739c-0.690979 -0.36302185 -1.4958496 -0.54452515 -2.4146118 -0.54452515z" fill-rule="evenodd"/><path fill="#ffebb0" d="m485.27185 247.01501c-0.85549927 0 -1.6261902 0.1618805 -2.3121338 0.48565674c-0.6833801 0.32377625 -1.2262878 0.76405334 -1.6287231 1.3208466l0 -1.6703796l-3.9902039 0l0 12.612442l3.9902039 0l0 -6.850754c0 -0.84376526 0.22525024 -1.4986725 0.67578125 -1.9647064c0.450531 -0.4684906 1.0567322 -0.70274353 1.818573 -0.70274353c0.7618408 0 1.368042 0.23425293 1.818573 0.70274353c0.450531 0.46603394 0.67578125 1.1209412 0.67578125 1.9647064l0 6.850754l3.9674377 0l0 -7.369522c0 -1.6728363 -0.4555664 -2.9875488 -1.3667603 -3.9441528c-0.9086609 -0.956604 -2.124817 -1.4348907 -3.648529 -1.4348907z" fill-rule="evenodd"/><path fill="#ffebb0" d="m498.0078 243.89502l0 15.868561l3.9902344 0l0 -15.868561z" fill-rule="evenodd"/><path fill="#ffebb0" d="m512.8201 247.01501c-0.85549927 0 -1.6261902 0.1618805 -2.3121033 0.48565674c-0.68341064 0.32377625 -1.2263184 0.76405334 -1.6287537 1.3208466l0 -1.6703796l-3.9902039 0l0 12.612442l3.9902039 0l0 -6.850754c0 -0.84376526 0.22528076 -1.4986725 0.67581177 -1.9647064c0.450531 -0.4684906 1.0567017 -0.70274353 1.8185425 -0.70274353c0.76187134 0 1.3680725 0.23425293 1.818573 0.70274353c0.45056152 0.46603394 0.67578125 1.1209412 0.67578125 1.9647064l0 6.850754l3.9674683 0l0 -7.369522c0 -1.6728363 -0.45562744 -2.9875488 -1.3667603 -3.9441528c-0.9086914 -0.956604 -2.124878 -1.4348907 -3.6485596 -1.4348907z" fill-rule="evenodd"/></g></g></svg>