<svg id="visual" viewBox="0 0 1920 1080" width="1920" height="1080" xmlns="http://www.w3.org/2000/svg" xmlns:xlink="http://www.w3.org/1999/xlink" version="1.1"><rect x="0" y="0" width="1920" height="1080" fill="#efeff1"></rect><path d="M0 902L53.3 915.3C106.7 928.7 213.3 955.3 320 952.8C426.7 950.3 533.3 918.7 640 903.7C746.7 888.7 853.3 890.3 960 891C1066.7 891.7 1173.3 891.3 1280 891.8C1386.7 892.3 1493.3 893.7 1600 899.7C1706.7 905.7 1813.3 916.3 1866.7 921.7L1920 927L1920 1081L1866.7 1081C1813.3 1081 1706.7 1081 1600 1081C1493.3 1081 1386.7 1081 1280 1081C1173.3 1081 1066.7 1081 960 1081C853.3 1081 746.7 1081 640 1081C533.3 1081 426.7 1081 320 1081C213.3 1081 106.7 1081 53.3 1081L0 1081Z" fill="#9ec5ff"></path><path d="M0 965L53.3 969.5C106.7 974 213.3 983 320 985.2C426.7 987.3 533.3 982.7 640 974C746.7 965.3 853.3 952.7 960 947C1066.7 941.3 1173.3 942.7 1280 953C1386.7 963.3 1493.3 982.7 1600 994.8C1706.7 1007 1813.3 1012 1866.7 1014.5L1920 1017L1920 1081L1866.7 1081C1813.3 1081 1706.7 1081 1600 1081C1493.3 1081 1386.7 1081 1280 1081C1173.3 1081 1066.7 1081 960 1081C853.3 1081 746.7 1081 640 1081C533.3 1081 426.7 1081 320 1081C213.3 1081 106.7 1081 53.3 1081L0 1081Z" fill="#5998ff"></path><path d="M0 1026L53.3 1026.5C106.7 1027 213.3 1028 320 1030.5C426.7 1033 533.3 1037 640 1035C746.7 1033 853.3 1025 960 1028.3C1066.7 1031.7 1173.3 1046.3 1280 1050.3C1386.7 1054.3 1493.3 1047.7 1600 1042.3C1706.7 1037 1813.3 1033 1866.7 1031L1920 1029L1920 1081L1866.7 1081C1813.3 1081 1706.7 1081 1600 1081C1493.3 1081 1386.7 1081 1280 1081C1173.3 1081 1066.7 1081 960 1081C853.3 1081 746.7 1081 640 1081C533.3 1081 426.7 1081 320 1081C213.3 1081 106.7 1081 53.3 1081L0 1081Z" fill="#0066ff"></path></svg>