<svg version="1.1" viewBox="0.0 0.0 960.0 521.2808398950132" fill="none" stroke="none" stroke-linecap="square" stroke-miterlimit="10" xmlns:xlink="http://www.w3.org/1999/xlink" xmlns="http://www.w3.org/2000/svg"><clipPath id="p.0"><path d="m0 0l960.0 0l0 521.2808l-960.0 0l0 -521.2808z" clip-rule="nonzero"/></clipPath><g clip-path="url(#p.0)"><path fill="#000000" fill-opacity="0.0" d="m0 0l960.0 0l0 521.2808l-960.0 0z" fill-rule="evenodd"/><path fill="#8bbe84" d="m86.181114 202.14392l-7.7743835 7.486969c-0.19766998 0.19036865 -0.46564484 0.29719543 -0.7449875 0.2969818c-0.27933502 -2.1362305E-4 -0.54714966 -0.10745239 -0.7445297 -0.29811096l-10.181648 -9.835114c-4.6984024 -4.5384827 -4.6928177 -11.891037 0.01247406 -16.422379l7.7743835 -7.4869843c0.4116211 -0.39639282 1.0784988 -0.39588928 1.4895096 0.0011444092l10.181656 9.835114l0 0c4.6984024 4.5384827 4.6928177 11.891037 -0.01247406 16.422379z" fill-rule="evenodd"/><path fill="#aec7a2" d="m92.97666 214.09235l-7.7887497 0c-0.1980362 0 -0.3879547 -0.07867432 -0.5279846 -0.21870422c-0.1400299 -0.1400299 -0.2186966 -0.3299408 -0.2186966 -0.5279846l0 -10.5289c0 -4.7139893 3.8214417 -8.535446 8.535431 -8.535446l7.7887573 0c0.4123764 0 0.7466812 0.3343048 0.7466812 0.74668884l0 10.528915l0 0c0 4.7139893 -3.8214493 8.535431 -8.535439 8.535431z" fill-rule="evenodd"/><path fill="#96aa8c" d="m80.66826 260.42847l-9.613792 3.003418c-0.24443817 0.0763855 -0.5112457 0.05316162 -0.74173737 -0.06448364c-0.23049164 -0.11767578 -0.4057846 -0.3201599 -0.48731232 -0.5628967l-4.587967 -13.660812c-1.9407692 -5.7786865 1.2028046 -11.936829 7.0213623 -13.754578l9.613792 -3.003418c0.5090027 -0.15901184 1.0592728 0.12188721 1.2290497 0.62739563l4.587967 13.660797l0 0c1.9407654 5.778702 -1.2028046 11.936829 -7.0213623 13.754578z" fill-rule="evenodd"/><path fill="#798a71" d="m-0.18542792 190.2833l0 0c31.460506 -0.3589325 61.743187 13.210449 84.09699 37.68306c22.353813 24.472626 34.920357 57.81392 34.898117 92.59102l-5.5591965 -0.0043640137c0.021095276 -33.29303 -11.95311 -65.21146 -33.253 -88.639145c-21.299885 -23.427689 -50.15457 -36.416855 -80.13101 -36.07161z" fill-rule="evenodd"/><path fill="#798a71" d="m113.2664 521.17847l0 -201.6063l5.5433044 0l0 201.6063z" fill-rule="evenodd"/><path fill="#798a71" d="m146.69948 521.17975l0 -201.60632l5.5433044 0l0 201.60632z" fill-rule="evenodd"/><path fill="#798a71" d="m-0.22412978 190.2789l0 0c40.372124 -0.16679382 79.15773 13.427139 107.774666 37.77385c28.616928 24.346695 44.705826 57.43889 44.70668 91.95418l-5.2956696 9.1552734E-5l0 0c-8.239746E-4 -33.105743 -15.527664 -64.84653 -43.14499 -88.199295c-27.617325 -23.352768 -65.04828 -36.392227 -104.01076 -36.23323z" fill-rule="evenodd"/><path fill="#96aa8c" d="m119.57748 19.43085l69.66929 0l0 5.35433l-69.66929 0z" fill-rule="evenodd"/><path fill="#aec7a2" d="m0 74.09769l66.74016 0l0 5.354332l-66.74016 0z" fill-rule="evenodd"/><path fill="#96aa8c" d="m217.76064 -0.067862004l0 0c0.07891846 13.614205 -12.870071 24.717306 -28.956879 24.82904l-0.051452637 -5.305708l0 0c13.168396 -0.08423424 23.76976 -8.806556 23.702438 -19.501305z" fill-rule="evenodd"/><path fill="#aec7a2" d="m0 85.19777l66.74016 0l0 5.354332l-66.74016 0z" fill-rule="evenodd"/><path fill="#8bbe84" d="m206.49641 64.92528l-3.1455383 25.74179c-0.07199097 0.5891037 -0.37528992 1.1275177 -0.8431854 1.4968033c-0.46788025 0.36928558 -1.0620422 0.53917694 -1.6517487 0.47232056l-23.193817 -2.6297836l0 0c-14.037598 -1.591629 -24.028183 -14.2499695 -22.314606 -28.273205l3.1455383 -25.741787c0.14990234 -1.2267494 1.266922 -2.1083565 2.494934 -1.9691238l23.193817 2.6297836l0 0c14.037598 1.5916252 24.028198 14.249966 22.314606 28.273201z" fill-rule="evenodd"/><path fill="#aec7a2" d="m159.52493 72.07212l-10.978989 10.576614c-0.2791443 0.26891327 -0.65760803 0.41984558 -1.052124 0.41958618c-0.394516 -2.593994E-4 -0.7727814 -0.15168 -1.0515747 -0.42095947l-14.617493 -14.118599c-6.6364517 -6.409954 -6.629677 -16.795513 0.015136719 -23.196796l10.978989 -10.576611c0.58128357 -0.5599823 1.5231476 -0.55936813 2.1036987 0.001373291l14.617493 14.118599l0 0c6.636444 6.409954 6.629669 16.79551 -0.015136719 23.196793z" fill-rule="evenodd"/><path fill="#96aa8c" d="m118.74808 30.528399l70.519684 0l0 5.35433l-70.519684 0z" fill-rule="evenodd"/><path fill="#aec7a2" d="m95.945625 49.325386l0 0c0.031402588 7.994438 -3.04068 15.671455 -8.535103 21.328865c-5.4944153 5.6574097 -12.957146 8.827721 -20.73352 8.807999l0.01335144 -5.5660706l0 0c6.293846 0.016166687 12.333885 -2.5661163 16.780914 -7.1742935c4.447029 -4.608181 6.9335785 -10.861473 6.9083176 -17.373394z" fill-rule="evenodd"/><defs><linearGradient id="p.1" gradientUnits="userSpaceOnUse" gradientTransform="matrix(5.410090584757182 0.0 0.0 5.410090584757182 0.0 0.0)" spreadMethod="pad" x1="22.11377361994652" y1="3.589096453710505" x2="16.70368303533053" y2="3.589057367417855"><stop offset="0.0" stop-color="#96aa8c"/><stop offset="1.0" stop-color="#aec7a2"/></linearGradient></defs><path fill="url(#p.1)" d="m90.368675 49.5543l0 0c-0.031402588 -7.994438 3.0406876 -15.671455 8.535103 -21.328865c5.494423 -5.6574097 12.957153 -8.827723 20.733528 -8.808002l-0.01335907 5.5660706l0 0c-6.293846 -0.01616478 -12.333885 2.5661163 -16.780907 7.1742973c-4.447029 4.608181 -6.9335785 10.861473 -6.908325 17.373394z" fill-rule="evenodd"/><path fill="#aec7a2" d="m95.08523 60.423885l0 0c0.031402588 7.994442 -3.04068 15.671452 -8.535103 21.328861c-5.494423 5.6574097 -12.957153 8.827728 -20.733528 8.808006l0.01335907 -5.5660706l0 0c6.293846 0.016166687 12.333885 -2.5661163 16.780914 -7.1742935c4.4470215 -4.608185 6.933571 -10.861481 6.9083176 -17.373394z" fill-rule="evenodd"/><defs><linearGradient id="p.2" gradientUnits="userSpaceOnUse" gradientTransform="matrix(5.41009058475804 0.0 0.0 5.41009058475804 0.0 0.0)" spreadMethod="pad" x1="21.95473741731616" y1="5.640541470985905" x2="16.54464683270103" y2="5.640502147806632"><stop offset="0.0" stop-color="#96aa8c"/><stop offset="1.0" stop-color="#aec7a2"/></linearGradient></defs><path fill="url(#p.2)" d="m89.50828 60.6528l0 0c-0.031402588 -7.994442 3.04068 -15.671455 8.535103 -21.328865c5.4944153 -5.6574097 12.957146 -8.827724 20.73352 -8.808006l-0.01335144 5.5660706l0 0c-6.293846 -0.016162872 -12.333885 2.5661163 -16.780914 7.1742973c-4.447029 4.608181 -6.933571 10.861477 -6.9083176 17.373394z" fill-rule="evenodd"/><path fill="#96aa8c" d="m229.88396 -0.020605018l0 0c0.058914185 9.4786415 -4.497055 18.58734 -12.663635 25.318232c-8.16658 6.730892 -19.273285 10.53138 -30.871857 10.563709l-0.022338867 -5.3522205l0 0c10.179321 -0.026628494 19.927246 -3.257658 27.094315 -8.980625c7.1670685 -5.722968 11.164658 -13.467856 11.111282 -21.526875z" fill-rule="evenodd"/><path fill="#8bbe84" d="m244.5197 360.90732l-7.7743835 7.486969c-0.19767761 0.19033813 -0.46565247 0.29718018 -0.74497986 0.29696655c-0.27934265 -2.1362305E-4 -0.5471649 -0.10745239 -0.74453735 -0.2980957l-10.181656 -9.835114c-4.698395 -4.5384827 -4.69281 -11.891052 0.012481689 -16.422394l7.7743835 -7.486969c0.4116211 -0.39639282 1.0784912 -0.39590454 1.4895172 0.0011291504l10.181641 9.835114l0 0c4.69841 4.5384827 4.6928253 11.891022 -0.012466431 16.422394z" fill-rule="evenodd"/><path fill="#aec7a2" d="m220.34015 355.67426l-7.70253 1.1208801c-0.19584656 0.028503418 -0.39587402 -0.021820068 -0.55610657 -0.13989258c-0.16021729 -0.11810303 -0.2675171 -0.294281 -0.29826355 -0.4897766l-1.6451874 -10.458679c-0.7320404 -4.6536865 2.453659 -8.976196 7.1154633 -9.654572l7.702545 -1.1209106c0.4078064 -0.059326172 0.7903137 0.22259521 0.85435486 0.6296997l1.6451874 10.458679l0 0c0.7320404 4.653656 -2.453659 8.976166 -7.1154633 9.654572z" fill-rule="evenodd"/><path fill="#aec7a2" d="m184.84842 350.97507l-4.023712 6.4379272c-0.10231018 0.16369629 -0.26670837 0.282135 -0.4570465 0.32928467c-0.19033813 0.04714966 -0.39102173 0.019104004 -0.55789185 -0.07791138l-9.784637 -5.6887207c-3.97229 -2.3094788 -5.218292 -7.3403625 -2.78302 -11.236786l4.023712 -6.437958c0.21304321 -0.34085083 0.66744995 -0.45339966 1.0149384 -0.2513733l9.784637 5.688751l0 0c3.97229 2.3094788 5.218292 7.3403625 2.78302 11.236786z" fill-rule="evenodd"/><path fill="#798a71" d="m146.70201 360.81018l0 0c-0.031402588 -7.9944153 3.04068 -15.671448 8.535095 -21.328857c5.4944305 -5.6574097 12.957153 -8.827728 20.733536 -8.808014l-0.013366699 5.5660706l0 0c-6.2938385 -0.016143799 -12.333878 2.5661316 -16.7809 7.1743164c-4.4470367 4.608185 -6.9335785 10.861481 -6.908325 17.373383z" fill-rule="evenodd"/><path fill="#798a71" d="m175.88007 330.68674l63.62204 0l0 5.3543396l-63.62204 0z" fill-rule="evenodd"/><path fill="#96aa8c" d="m87.87561 443.7167l-9.6138 3.0033875c-0.24443054 0.0763855 -0.5112381 0.05316162 -0.74172974 -0.06448364c-0.23049164 -0.11767578 -0.4057846 -0.3201294 -0.48731995 -0.5628967l-4.587967 -13.660797c-1.9407654 -5.7786865 1.2028046 -11.936829 7.0213623 -13.754608l9.613792 -3.0033875c0.5090103 -0.1590271 1.0592728 0.12185669 1.2290573 0.6273804l4.5879593 13.660797l0 0c1.940773 5.7786865 -1.2027969 11.936829 -7.0213547 13.754608z" fill-rule="evenodd"/><path fill="#798a71" d="m118.81177 441.7767l0 0c0.031402588 -7.994446 -3.04068 -15.671448 -8.535103 -21.328857c-5.4944153 -5.6574097 -12.957146 -8.827728 -20.73352 -8.808014l0.01335144 5.5660706l0 0c6.293846 -0.016174316 12.333885 2.5661316 16.780914 7.1743164c4.447029 4.6081543 6.933571 10.86145 6.9083176 17.373383z" fill-rule="evenodd"/><path fill="#798a71" d="m26.745712 411.65326l63.622047 0l0 5.3543396l-63.622047 0z" fill-rule="evenodd"/><path fill="#a28e64" d="m175.40677 330.78003l-5.7637787 0.57766724l3.3070831 -20.370117z" fill-rule="evenodd"/><path fill="#a28e64" d="m224.2515 306.5623l17.70079 -28.426971l-42.771652 14.98877z" fill-rule="evenodd"/><path fill="#a28e64" d="m206.82556 289.35617l8.976364 -5.259735l1.7952881 2.64505l-8.976379 5.2597656z" fill-rule="evenodd"/><path fill="#a28e64" d="m205.8749 311.0414l3.4015656 -23.106384l-36.91339 18.758728z" fill-rule="evenodd"/><path fill="#a28e64" d="m227.59381 296.96408l1.0393677 22.86319l-39.496063 -21.40384z" fill-rule="evenodd"/><path fill="#a28e64" d="m219.8595 330.4752l-26.992126 -23.015198l35.779526 14.198273z" fill-rule="evenodd"/><path fill="#a28e64" d="m172.12917 305.1391l47.936996 -4.682068l-44.94487 29.977509z" fill-rule="evenodd"/><path fill="#a28e64" d="m175.61375 307.3785l-4.692917 -4.3780518l10.519684 -1.0641174z" fill-rule="evenodd"/><path fill="#a28e64" d="m172.50856 306.05768l-7.496063 -10.793121l12.566925 8.664886z" fill-rule="evenodd"/><path fill="#a28e64" d="m167.27464 295.02957l-1.7637787 -6.354248l-0.53544617 6.5670776z" fill-rule="evenodd"/><path fill="#a28e64" d="m166.2531 291.33902l0.22047424 -7.0231323l-1.7637787 6.7495117z" fill-rule="evenodd"/><path fill="#a28e64" d="m164.55891 290.46237l1.448822 -0.060791016l0.18896484 4.864502l-1.448822 0.060791016z" fill-rule="evenodd"/><path fill="#a28e64" d="m165.01018 295.21393l1.6062927 -1.0640869l4.0944977 5.320526l-1.606308 1.0641174z" fill-rule="evenodd"/><path fill="#a28e64" d="m165.2211 289.53326l0.9133911 0.60806274l-0.69291687 0.9425049l-0.91337585 -0.60806274z" fill-rule="evenodd"/><path fill="#a28e64" d="m165.61235 294.17804l1.1968536 0.7600708l-0.881897 1.1553345l-1.1968384 -0.7600708z" fill-rule="evenodd"/><path fill="#a28e64" d="m165.68898 275.94193l1.4173279 0.15203857l-1.1653595 14.07663l-1.4173126 -0.15200806z" fill-rule="evenodd"/><path fill="#a28e64" d="m164.55817 289.94785l1.4488068 0l0 1.3681335l-1.4488068 0z" fill-rule="evenodd"/><path fill="#a28e64" d="m175.21437 330.43127l15.401581 0.36483765l-15.149612 -10.823517z" fill-rule="evenodd"/><path fill="#a28e64" d="m218.30669 330.87115l20.220474 0.4864502l-19.905502 -14.441498z" fill-rule="evenodd"/><path fill="#a28e64" d="m194.17163 306.0702l17.606293 -0.63845825l0.5354309 11.2187805l-17.606293 0.63845825z" fill-rule="evenodd"/><path fill="#a28e64" d="m247.15294 285.69562l-15.908844 14.848938l-20.721008 -6.913727l3.1025696 -19.121826l22.638489 -4.904236z" fill-rule="evenodd"/><path fill="#a28e64" d="m215.98062 319.12415l11.968506 -2.1890259l2.551178 10.975525l-11.968506 2.1890259z" fill-rule="evenodd"/><path fill="#a28e64" d="m207.09306 314.37805l8.283463 -7.9960327l11.496063 9.424988l-8.283463 7.9960327z" fill-rule="evenodd"/><path fill="#a28e64" d="m195.47151 275.46454l0 0c0.29600525 0.2631836 0.80389404 0.29956055 1.1343842 0.08129883l0 0l0 0c0.15872192 -0.10482788 0.25445557 -0.25558472 0.26617432 -0.41906738c0.01171875 -0.16348267 -0.061553955 -0.32632446 -0.20370483 -0.45269775l-8.502884 -7.559845c-0.29600525 -0.2631836 -0.8038788 -0.29956055 -1.1343842 -0.08129883l0 0l0 0c-0.33050537 0.21829224 -0.35845947 0.60861206 -0.062454224 0.87176514z" fill-rule="evenodd"/><path fill="#a28e64" d="m180.45569 265.2493l0.4409485 1.2161255l-7.244095 2.3106384l-0.4409485 -1.2161255z" fill-rule="evenodd"/><path fill="#a28e64" d="m173.20695 267.49353l1.102356 0.7904663l-7.5590515 8.512878l-1.102356 -0.7904663z" fill-rule="evenodd"/><path fill="#a28e64" d="m187.87473 266.96384l-0.34646606 1.246521l-7.464569 -1.7329712l0.34646606 -1.246521z" fill-rule="evenodd"/><path fill="#fae8c2" d="m244.89929 285.3263l-12.449081 12.934692l-17.598099 -4.7866516l1.572876 -15.893005l18.570175 -5.0357666z" fill-rule="evenodd"/><path fill="#666666" d="m227.2199 282.60107l-5.1176605 -3.4705505l-1.9689636 5.4163513z" fill-rule="evenodd"/><path fill="#666666" d="m236.15117 283.0581l-3.782837 -4.806946l-3.5872345 4.5637207z" fill-rule="evenodd"/><defs><linearGradient id="p.3" gradientUnits="userSpaceOnUse" gradientTransform="matrix(22.83188152072784 0.0 0.0 22.83188152072784 0.0 0.0)" spreadMethod="pad" x1="5.50990133930299E-10" y1="-3.821206887669741E-4" x2="-8.265063224711732E-5" y2="22.83149939988947"><stop offset="0.0" stop-color="#fafcfd"/><stop offset="1.0" stop-color="#e0edf3"/></linearGradient></defs><path fill="url(#p.3)" d="m0 -0.005249344l960.0 0l0 521.2913l-960.0 0z" fill-rule="evenodd"/><path fill="#e0edf3" d="m959.4304 521.2861l-959.43115 0l0 -102.190704c479.71558 0 479.71558 -38.936523 959.43115 -16.813477z" fill-rule="evenodd"/></g></svg>