<svg version="1.1" viewBox="0.0 0.0 960.0 540.0" fill="none" stroke="none" stroke-linecap="square" stroke-miterlimit="10" xmlns:xlink="http://www.w3.org/1999/xlink" xmlns="http://www.w3.org/2000/svg"><clipPath id="p.0"><path d="m0 0l960.0 0l0 540.0l-960.0 0l0 -540.0z" clip-rule="nonzero"/></clipPath><g clip-path="url(#p.0)"><path fill="#000000" fill-opacity="0.0" d="m0 0l960.0 0l0 540.0l-960.0 0z" fill-rule="evenodd"/><path fill="#8bbe84" d="m86.181114 209.40747l-7.7743835 7.760025c-0.19766998 0.19729614 -0.4656906 0.3080597 -0.7451019 0.30793762c-0.27941132 -1.373291E-4 -0.54733276 -0.11114502 -0.74481964 -0.30863953l-10.176636 -10.176636c-4.7009506 -4.700943 -4.697426 -12.319153 0.007865906 -17.015747l7.7743835 -7.760025c0.4116211 -0.41085815 1.0786743 -0.41053772 1.489914 7.019043E-4l10.176643 10.176636l0 0c4.7009506 4.700943 4.697426 12.319153 -0.007865906 17.015747z" fill-rule="evenodd"/><path fill="#aec7a2" d="m92.97666 221.78038l-7.7887497 0c-0.1980362 0 -0.3879547 -0.07865906 -0.5279846 -0.21868896c-0.1400299 -0.1400299 -0.2186966 -0.32995605 -0.2186966 -0.5279846l0 -11.253326c0 -4.7139893 3.8214417 -8.535431 8.535431 -8.535431l7.7887573 0c0.4123764 0 0.7466812 0.3343048 0.7466812 0.7466736l0 11.253326l0 0c0 4.7139893 -3.8214493 8.535431 -8.535439 8.535431z" fill-rule="evenodd"/><path fill="#96aa8c" d="m80.66826 269.78824l-9.613792 3.1183777c-0.24443817 0.07928467 -0.5103226 0.05822754 -0.7391739 -0.05859375c-0.22885132 -0.11679077 -0.40192413 -0.31973267 -0.4811325 -0.56417847l-4.696663 -14.494568c-1.8855667 -5.8191223 1.3027573 -12.066452 7.121315 -13.953796l9.613792 -3.1183624c0.5090027 -0.16511536 1.0553589 0.113723755 1.2203064 0.6227722l4.6966553 14.494553l0 0c1.8855667 5.819153 -1.3027496 12.066467 -7.1213074 13.953796z" fill-rule="evenodd"/><path fill="#798a71" d="m-0.22909504 197.11688l0 0c31.467453 -0.38526917 61.760914 13.665131 84.12412 39.01758c22.363213 25.352448 34.936127 59.898315 34.914658 95.93289l-5.5591965 -0.0043640137l0 0c0.020332336 -34.55063 -11.960236 -67.673676 -33.269524 -91.9812c-21.309292 -24.30754 -50.174763 -37.777664 -80.15815 -37.40593z" fill-rule="evenodd"/><path fill="#798a71" d="m113.2664 539.894l0 -208.85043l5.5433044 0l0 208.85043z" fill-rule="evenodd"/><path fill="#798a71" d="m146.69948 539.89526l0 -208.8504l5.5433044 0l0 208.8504z" fill-rule="evenodd"/><path fill="#798a71" d="m-0.25047794 197.11192l0 0c40.376675 -0.17901611 79.16907 13.900604 107.79172 39.122787c28.622643 25.222168 44.715157 59.506958 44.71598 95.26648l-5.4859467 1.2207031E-4l0 0c-7.9345703E-4 -34.299286 -15.511063 -67.18411 -43.098175 -91.37662c-27.58712 -24.19252 -64.97618 -37.697784 -103.89256 -37.5269z" fill-rule="evenodd"/><path fill="#96aa8c" d="m119.57748 20.128609l69.66929 0l0 5.5433064l-69.66929 0z" fill-rule="evenodd"/><path fill="#aec7a2" d="m0 76.75853l66.74016 0l0 5.5433044l-66.74016 0z" fill-rule="evenodd"/><path fill="#96aa8c" d="m217.76067 -0.071342945l0 0c0.076171875 14.095516 -12.866852 25.591024 -28.948349 25.710838l-0.05329895 -5.4950695c13.058792 -0.09103966 23.570312 -9.120887 23.506378 -20.192955z" fill-rule="evenodd"/><path fill="#aec7a2" d="m0 88.25722l66.74016 0l0 5.5433044l-66.74016 0z" fill-rule="evenodd"/><path fill="#8bbe84" d="m206.60127 66.37028l-3.2595673 27.63549c-0.06956482 0.5896988 -0.37052917 1.1276627 -0.83670044 1.4955521c-0.46617126 0.3678894 -1.0593567 0.53556824 -1.6490631 0.46614838l-23.193817 -2.7303772l0 0c-14.037598 -1.652504 -24.075134 -14.371544 -22.419464 -28.408768l3.2595673 -27.635498c0.14485168 -1.2279778 1.2577515 -2.1062584 2.4857635 -1.9616966l23.193817 2.7303734l0 0c14.037598 1.652504 24.075134 14.371548 22.419464 28.408775z" fill-rule="evenodd"/><path fill="#aec7a2" d="m159.52493 74.653465l-10.978989 10.950233c-0.2791443 0.2784195 -0.6575928 0.43468475 -1.0521088 0.43442535c-0.394516 -2.593994E-4 -0.7727661 -0.15702057 -1.0515442 -0.43579865l-14.618134 -14.618141c-6.6361237 -6.6361237 -6.6290817 -17.388344 0.015731812 -24.015762l10.978989 -10.950237c0.58128357 -0.57976913 1.5231171 -0.57915115 2.103653 0.0013771057l14.618134 14.618141l0 0c6.6361237 6.63612 6.629074 17.388344 -0.015731812 24.015762z" fill-rule="evenodd"/><path fill="#96aa8c" d="m118.74808 31.624672l70.519684 0l0 5.5433083l-70.519684 0z" fill-rule="evenodd"/><path fill="#aec7a2" d="m95.94564 51.09401l0 0c0.030326843 8.279388 -3.042595 16.229599 -8.53746 22.087982c-5.494858 5.858391 -12.957634 9.140892 -20.73375 9.119743l0.01335144 -5.5660706l0 0c6.293602 0.017608643 12.333702 -2.6768494 16.781174 -7.4860153c4.4474716 -4.8091583 6.934845 -11.335655 6.9106445 -18.13253z" fill-rule="evenodd"/><defs><linearGradient id="p.1" gradientUnits="userSpaceOnUse" gradientTransform="matrix(5.410329361203027 0.0 0.0 5.410329361203027 0.0 0.0)" spreadMethod="pad" x1="22.11327520540059" y1="3.720403616871259" x2="16.70294584433874" y2="3.720364532303622"><stop offset="0.0" stop-color="#96aa8c"/><stop offset="1.0" stop-color="#aec7a2"/></linearGradient></defs><path fill="url(#p.1)" d="m90.36866 51.336433l0 0c-0.030319214 -8.279385 3.0426025 -16.229591 8.53746 -22.087982c5.4948654 -5.858389 12.957642 -9.14089 20.73375 -9.119741l-0.01335144 5.5660725l0 0c-6.293602 -0.017612457 -12.333694 2.6768513 -16.781166 7.4860115c-4.4474716 4.809162 -6.934845 11.335659 -6.910652 18.132534z" fill-rule="evenodd"/><path fill="#aec7a2" d="m95.08524 62.591057l0 0c0.030319214 8.279388 -3.0426025 16.229599 -8.53746 22.087982c-5.4948654 5.858391 -12.957642 9.140892 -20.73375 9.119743l0.01335144 -5.5660706l0 0c6.293602 0.017608643 12.333694 -2.6768494 16.781166 -7.4860153c4.4474716 -4.8091583 6.934845 -11.335655 6.910652 -18.13253z" fill-rule="evenodd"/><defs><linearGradient id="p.2" gradientUnits="userSpaceOnUse" gradientTransform="matrix(5.410329361203885 0.0 0.0 5.410329361203885 0.0 0.0)" spreadMethod="pad" x1="21.95424602158493" y1="5.84542161051389" x2="16.543916660523934" y2="5.845382289070085"><stop offset="0.0" stop-color="#96aa8c"/><stop offset="1.0" stop-color="#aec7a2"/></linearGradient></defs><path fill="url(#p.2)" d="m89.50826 62.83348l0 0c-0.030326843 -8.279385 3.042595 -16.229595 8.53746 -22.087982c5.494858 -5.858391 12.957634 -9.140892 20.73375 -9.119741l-0.01335144 5.5660725l0 0c-6.293602 -0.017612457 -12.333694 2.6768532 -16.781174 7.4860115c-4.4474716 4.809162 -6.9348373 11.335659 -6.9106445 18.132534z" fill-rule="evenodd"/><path fill="#96aa8c" d="m229.88399 -0.021254783l0 0c0.056884766 9.815419 -4.4992676 19.247223 -12.66449 26.217075c-8.165207 6.9698486 -19.269394 10.905758 -30.865707 10.9404335l-0.023132324 -5.543455c10.1262665 -0.028701782 19.823044 -3.374775 26.953033 -9.300695c7.1299744 -5.9259224 11.107849 -13.945227 11.056839 -22.290344z" fill-rule="evenodd"/><path fill="#8bbe84" d="m244.5197 373.87204l-7.7743835 7.76001c-0.19767761 0.19729614 -0.46569824 0.30807495 -0.7451019 0.30795288c-0.27941895 -1.2207031E-4 -0.54733276 -0.11114502 -0.744812 -0.30862427l-10.176651 -10.176666c-4.700943 -4.7009277 -4.697418 -12.319153 0.007873535 -17.015747l7.7743835 -7.76001c0.4116211 -0.41085815 1.0786743 -0.41055298 1.489914 7.019043E-4l10.176636 10.176636l0 0c4.7009583 4.7009583 4.6974335 12.319153 -0.007858276 17.015747z" fill-rule="evenodd"/><path fill="#aec7a2" d="m220.34015 368.44962l-7.70253 1.1640015c-0.19584656 0.02960205 -0.3954773 -0.019805908 -0.5549927 -0.1373291c-0.15951538 -0.11752319 -0.26585388 -0.2935791 -0.29560852 -0.48937988l-1.6920929 -11.136719c-0.7082062 -4.661255 2.4967957 -9.011017 7.1586 -9.715515l7.702545 -1.1640015c0.4078064 -0.061645508 0.78863525 0.21896362 0.85058594 0.6267395l1.6920929 11.136719l0 0c0.70822144 4.6612244 -2.4967957 9.011017 -7.1586 9.715485z" fill-rule="evenodd"/><path fill="#aec7a2" d="m184.84842 363.57718l-4.023712 6.667877c-0.10231018 0.16952515 -0.2677765 0.2915039 -0.46003723 0.3390808c-0.19224548 0.047607422 -0.3955078 0.016906738 -0.565094 -0.08532715l-9.657928 -5.822418c-4.0366364 -2.4335327 -5.3348083 -7.6777954 -2.8995361 -11.713379l4.023712 -6.667877c0.21304321 -0.35302734 0.6720123 -0.4666443 1.0251312 -0.25375366l9.657928 5.8223877l0 0c4.0366364 2.4335632 5.3348083 7.677826 2.8995361 11.713409z" fill-rule="evenodd"/><path fill="#798a71" d="m146.702 373.7695l0 0c-0.030319214 -8.279388 3.0426025 -16.229584 8.53746 -22.087982c5.494858 -5.8583984 12.957642 -9.1409 20.73375 -9.119751l-0.01335144 5.5660706l0 0c-6.2935944 -0.017608643 -12.333694 2.67688 -16.781174 7.486023c-4.447464 4.8091736 -6.934845 11.335663 -6.9106445 18.132538z" fill-rule="evenodd"/><path fill="#798a71" d="m175.88007 342.56168l63.62204 0l0 5.5433044l-63.62204 0z" fill-rule="evenodd"/><path fill="#96aa8c" d="m87.87561 459.65833l-9.6138 3.1183777c-0.24443054 0.07928467 -0.5103226 0.05819702 -0.7391739 -0.05859375c-0.22885132 -0.11679077 -0.4019165 -0.31973267 -0.4811325 -0.564209l-4.6966553 -14.494537c-1.8855667 -5.8191223 1.3027496 -12.066467 7.1213074 -13.953796l9.613792 -3.1183777c0.5090103 -0.1651001 1.0553589 0.11373901 1.220314 0.6227722l4.6966553 14.494568l0 0c1.8855667 5.8191223 -1.3027496 12.066467 -7.1213074 13.953796z" fill-rule="evenodd"/><path fill="#798a71" d="m118.81178 457.64352l0 0c0.030326843 -8.279388 -3.042595 -16.229584 -8.53746 -22.087982c-5.494858 -5.8583984 -12.957634 -9.1409 -20.73375 -9.119751l0.01335144 5.5660706l0 0c6.293602 -0.017608643 12.333702 2.6768494 16.781174 7.486023c4.4474716 4.8091736 6.9348373 11.335663 6.9106445 18.132538z" fill-rule="evenodd"/><path fill="#798a71" d="m26.745712 426.4357l63.622047 0l0 5.5433044l-63.622047 0z" fill-rule="evenodd"/><path fill="#a28e64" d="m175.40677 342.67072l-5.7637787 0.5984192l3.3070831 -21.102356z" fill-rule="evenodd"/><path fill="#a28e64" d="m224.2515 317.58237l17.70079 -29.448792l-42.771652 15.527557z" fill-rule="evenodd"/><path fill="#a28e64" d="m206.82556 299.75775l8.976364 -5.4487915l1.7952881 2.7401428l-8.976379 5.448822z" fill-rule="evenodd"/><path fill="#a28e64" d="m205.8749 322.22253l3.4015656 -23.937012l-36.91339 19.433075z" fill-rule="evenodd"/><path fill="#a28e64" d="m227.59381 307.63916l1.0393677 23.685059l-39.496063 -22.173218z" fill-rule="evenodd"/><path fill="#a28e64" d="m219.8595 342.3549l-26.992126 -23.842499l35.779526 14.708649z" fill-rule="evenodd"/><path fill="#a28e64" d="m172.12917 316.10806l47.936996 -4.850403l-44.94487 31.055115z" fill-rule="evenodd"/><path fill="#a28e64" d="m175.61375 318.42795l-4.692917 -4.535431l10.519684 -1.102356z" fill-rule="evenodd"/><path fill="#a28e64" d="m172.50856 317.05963l-7.496063 -11.181091l12.566925 8.976379z" fill-rule="evenodd"/><path fill="#a28e64" d="m167.27464 305.63513l-1.7637787 -6.582672l-0.53544617 6.803131z" fill-rule="evenodd"/><path fill="#a28e64" d="m166.2531 301.8119l0.22047424 -7.2756042l-1.7637787 6.9921265z" fill-rule="evenodd"/><path fill="#a28e64" d="m164.55891 300.90375l1.448822 -0.06298828l0.18896484 5.0393677l-1.448822 0.06298828z" fill-rule="evenodd"/><path fill="#a28e64" d="m165.01018 305.8261l1.6062927 -1.102356l4.0944977 5.5118103l-1.606308 1.102356z" fill-rule="evenodd"/><path fill="#a28e64" d="m165.2211 299.94122l0.9133911 0.62991333l-0.69291687 0.9763794l-0.91337585 -0.62991333z" fill-rule="evenodd"/><path fill="#a28e64" d="m165.61235 304.75296l1.1968536 0.78741455l-0.881897 1.1968384l-1.1968384 -0.78738403z" fill-rule="evenodd"/><path fill="#a28e64" d="m165.68898 285.86133l1.4173279 0.1574707l-1.1653595 14.582672l-1.4173126 -0.1574707z" fill-rule="evenodd"/><path fill="#a28e64" d="m164.55817 300.3707l1.4488068 0l0 1.4173279l-1.4488068 0z" fill-rule="evenodd"/><path fill="#a28e64" d="m175.21437 342.30942l15.401581 0.3779602l-15.149612 -11.212616z" fill-rule="evenodd"/><path fill="#a28e64" d="m218.30669 342.7651l20.220474 0.50393677l-19.905502 -14.960632z" fill-rule="evenodd"/><path fill="#a28e64" d="m194.17163 317.07263l17.606293 -0.661438l0.5354309 11.62207l-17.606293 0.6614075z" fill-rule="evenodd"/><path fill="#a28e64" d="m247.15294 295.96564l-15.908844 15.382721l-20.721008 -7.162262l3.1025696 -19.809235l22.638489 -5.0805054z" fill-rule="evenodd"/><path fill="#a28e64" d="m215.98062 330.59583l11.968506 -2.2677307l2.551178 11.370087l-11.968506 2.2677002z" fill-rule="evenodd"/><path fill="#a28e64" d="m207.09306 325.6791l8.283463 -8.283447l11.496063 9.763763l-8.283463 8.283478z" fill-rule="evenodd"/><path fill="#a28e64" d="m195.47414 285.3692l0 0c0.29455566 0.27130127 0.80126953 0.30789185 1.1317596 0.08175659l0 0l0 0c0.15872192 -0.10858154 0.25474548 -0.26446533 0.2669525 -0.43338013c0.012191772 -0.1689148 -0.060409546 -0.33700562 -0.20185852 -0.46728516l-8.508133 -7.836426c-0.29455566 -0.27130127 -0.8012543 -0.30792236 -1.1317596 -0.08178711l0 0l0 0c-0.33050537 0.22613525 -0.3596344 0.629364 -0.065078735 0.9006653z" fill-rule="evenodd"/><path fill="#a28e64" d="m180.45569 274.7843l0.4409485 1.2598572l-7.244095 2.3936768l-0.4409485 -1.2598267z" fill-rule="evenodd"/><path fill="#a28e64" d="m173.20695 277.10922l1.102356 0.8188782l-7.5590515 8.818909l-1.102356 -0.8189087z" fill-rule="evenodd"/><path fill="#a28e64" d="m187.87473 276.5605l-0.34646606 1.2913208l-7.464569 -1.7952576l0.34646606 -1.2913513z" fill-rule="evenodd"/><path fill="#fae8c2" d="m244.89929 295.58304l-12.449081 13.399628l-17.598099 -4.9587097l1.572876 -16.464325l18.570175 -5.2167664z" fill-rule="evenodd"/><path fill="#666666" d="m227.2199 292.75986l-5.1176605 -3.5953064l-1.9689636 5.6110535z" fill-rule="evenodd"/><path fill="#666666" d="m236.15117 293.2333l-3.782837 -4.9797363l-3.5872345 4.7277527z" fill-rule="evenodd"/><defs><linearGradient id="p.3" gradientUnits="userSpaceOnUse" gradientTransform="matrix(23.2379744941966 0.0 0.0 23.2379744941966 0.0 0.0)" spreadMethod="pad" x1="5.413634136930621E-10" y1="-3.8355260787987236E-4" x2="-8.412069461184949E-5" y2="23.237590941436462"><stop offset="0.0" stop-color="#fafcfd"/><stop offset="1.0" stop-color="#e0edf3"/></linearGradient></defs><path fill="url(#p.3)" d="m0 -0.005437795l960.0 0l0 540.0l-960.0 0z" fill-rule="evenodd"/><path fill="#e0edf3" d="m959.4304 540.00543l-959.43115 0l0 -105.85968c479.71558 0 479.71558 -40.334503 959.43115 -17.417175z" fill-rule="evenodd"/><path fill="#e0edf3" d="m0 -0.0053007873l959.9981 0l0 70.78378c-479.99905 0 -479.99905 26.969925 -959.9981 11.646103z" fill-rule="evenodd"/></g></svg>