<svg viewBox="0 0 2560 1440" width="2560" height="1440" xmlns="http://www.w3.org/2000/svg">
  <path d="m0 203 61 2.3c61 2.4 183 7 304.8 14.2 121.9 7.2 243.5 16.8 365.4 21.7C853 246 975 246 1097 243.5s244-7.5 366-10 244-2.5 365.8-12c121.9-9.5 243.5-28.5 365.4-26C2316 198 2438 222 2499 234l61 12V0H0Z" fill="#dfebfe"/>
  <path d="m0 347 61 14.3c61 14.4 183 43 304.8 62.2 121.9 19.2 243.5 28.8 365.4 26.5C853 447.7 975 433.3 1097 428.5s244-.2 366 4.5 244 9.3 365.8-.3c121.9-9.7 243.5-33.7 365.4-31.2C2316 404 2438 433 2499 447.5l61 14.5V244l-61-12c-61-12-183-36-304.8-38.5-121.9-2.5-243.5 16.5-365.4 26-121.8 9.5-243.8 9.5-365.8 12s-244 7.5-366 10-244 2.5-365.8-2.3c-121.9-4.9-243.5-14.5-365.4-21.7C244 210.3 122 205.7 61 203.3L0 201Z" fill="#d7e6fe"/>
  <path d="m0 721 61 7.2c61 7.1 183 21.5 304.8 45.5 121.9 24 243.5 57.6 365.4 74.5C853 865 975 865 1097 845.8c122-19.1 244-57.5 366-69.5s244 2.4 365.8-9.6c121.9-12 243.5-50.4 365.4-31.2C2316 754.7 2438 831.3 2499 869.7l61 38.3V460l-61-14.5c-61-14.5-183-43.5-304.8-46-121.9-2.5-243.5 21.5-365.4 31.2-121.8 9.6-243.8 5-365.8.3s-244-9.3-366-4.5-244 19.2-365.8 21.5c-121.9 2.3-243.5-7.3-365.4-26.5C244 402.3 122 373.7 61 359.3L0 345Z" fill="#cee1fe"/>
  <path d="m0 1153 61 7.2c61 7.1 183 21.5 304.8 43.1 121.9 21.7 243.5 50.7 365.4 55.5 121.8 4.9 243.8-14.5 365.8-36.1 122-21.7 244-45.7 366-43.4 122 2.4 244 31 365.8 43 121.9 12 243.5 7.4 365.4-2.1 121.8-9.5 243.8-23.9 304.8-31l61-7.2V906l-61-38.3c-61-38.4-183-115-304.8-134.2-121.9-19.2-243.5 19.2-365.4 31.2-121.8 12-243.8-2.4-365.8 9.6s-244 50.4-366 69.5C975 863 853 863 731.2 846.2c-121.9-16.9-243.5-50.5-365.4-74.5C244 747.7 122 733.3 61 726.2L0 719Z" fill="#bfd8fe"/>
  <path d="M0 1441h2560v-261l-61 7.2c-61 7.1-183 21.5-304.8 31-121.9 9.5-243.5 14.1-365.4 2.1-121.8-12-243.8-40.6-365.8-43-122-2.3-244 21.7-366 43.4-122 21.6-244 41-365.8 36.1-121.9-4.8-243.5-33.8-365.4-55.5-121.8-21.6-243.8-36-304.8-43.1L0 1151Z" fill="#b1cffe"/>
</svg>
