<svg viewBox="0 0 2560 1440" width="2560" height="1440" xmlns="http://www.w3.org/2000/svg"><path d="m0 548 71.2-19.2c71.1-19.1 213.5-57.5 355.6-52.6C569 481 711 529 853.2 548.2c142.1 19.1 284.5 9.5 426.8-4.9 142.3-14.3 284.7-33.3 426.8-42.8C1849 491 1991 491 2133.2 491H2560V0H0Z" fill="#dceaff"/><path d="m0 908 71.2-21.5c71.1-21.5 213.5-64.5 355.6-66.8 142.2-2.4 284.2 36 426.4 45.5 142.1 9.5 284.5-9.9 426.8-14.7s284.7 4.8 426.8-12c142.2-16.8 284.2-60.2 426.4-67.3 142.1-7.2 284.5 21.8 355.6 36.3L2560 822V489h-426.8c-142.2 0-284.2 0-426.4 9.5-142.1 9.5-284.5 28.5-426.8 42.8-142.3 14.4-284.7 24-426.8 4.9C711 527 569 479 426.8 474.2c-142.1-4.9-284.5 33.5-355.6 52.6L0 546Z" fill="#d3e5ff"/><path d="m0 1095 71.2-28.7c71.1-28.6 213.5-86 355.6-95.5 142.2-9.5 284.2 28.9 426.4 36 142.1 7.2 284.5-16.8 426.8-21.6 142.3-4.9 284.7 9.5 426.8-7.4C1849 961 1991 913 2133.2 901c142.1-12 284.5 12 355.6 24l71.2 12V820l-71.2-14.5c-71.1-14.5-213.5-43.5-355.6-36.3-142.2 7.1-284.2 50.5-426.4 67.3-142.1 16.8-284.5 7.2-426.8 12s-284.7 24.2-426.8 14.7C711 853.7 569 815.3 426.8 817.7 284.7 820 142.3 863 71.2 884.5L0 906Z" fill="#cadfff"/><path d="m0 1297 71.2-4.8c71.1-4.9 213.5-14.5 355.6-21.7 142.2-7.2 284.2-11.8 426.4-23.8 142.1-12 284.5-31.4 426.8-24.2s284.7 40.8 426.8 40.8c142.2 0 284.2-33.6 426.4-45.6 142.1-12 284.5-2.4 355.6 2.5l71.2 4.8V935l-71.2-12c-71.1-12-213.5-36-355.6-24-142.2 12-284.2 60-426.4 76.8-142.1 16.9-284.5 2.5-426.8 7.4-142.3 4.8-284.7 28.8-426.8 21.6-142.2-7.1-284.2-45.5-426.4-36-142.1 9.5-284.5 66.9-355.6 95.5L0 1093Z" fill="#bbd6ff"/><path d="M0 1441h2560v-218l-71.2-4.8c-71.1-4.9-213.5-14.5-355.6-2.5-142.2 12-284.2 45.6-426.4 45.6-142.1 0-284.5-33.6-426.8-40.8s-284.7 12.2-426.8 24.2c-142.2 12-284.2 16.6-426.4 23.8-142.1 7.2-284.5 16.8-355.6 21.7L0 1295Z" fill="#accdff"/></svg>