<svg id="visual" viewBox="0 0 2560 1440" width="2560" height="1440" xmlns="http://www.w3.org/2000/svg" xmlns:xlink="http://www.w3.org/1999/xlink" version="1.1"><path d="M0 519L38.8 485.5C77.7 452 155.3 385 232.8 385C310.3 385 387.7 452 465.2 502.3C542.7 552.7 620.3 586.3 698 536C775.7 485.7 853.3 351.3 931 301C1008.7 250.7 1086.3 284.3 1163.8 279.5C1241.3 274.7 1318.7 231.3 1396.2 248.2C1473.7 265 1551.3 342 1629 339.7C1706.7 337.3 1784.3 255.7 1862 294C1939.7 332.3 2017.3 490.7 2094.8 538.7C2172.3 586.7 2249.7 524.3 2327.2 478.7C2404.7 433 2482.3 404 2521.2 389.5L2560 375L2560 0L2521.2 0C2482.3 0 2404.7 0 2327.2 0C2249.7 0 2172.3 0 2094.8 0C2017.3 0 1939.7 0 1862 0C1784.3 0 1706.7 0 1629 0C1551.3 0 1473.7 0 1396.2 0C1318.7 0 1241.3 0 1163.8 0C1086.3 0 1008.7 0 931 0C853.3 0 775.7 0 698 0C620.3 0 542.7 0 465.2 0C387.7 0 310.3 0 232.8 0C155.3 0 77.7 0 38.8 0L0 0Z" fill="#6198ff"></path><path d="M0 779L38.8 743C77.7 707 155.3 635 232.8 635C310.3 635 387.7 707 465.2 738.2C542.7 769.3 620.3 759.7 698 685.2C775.7 610.7 853.3 471.3 931 423.3C1008.7 375.3 1086.3 418.7 1163.8 435.5C1241.3 452.3 1318.7 442.7 1396.2 473.8C1473.7 505 1551.3 577 1629 574.7C1706.7 572.3 1784.3 495.7 1862 517.3C1939.7 539 2017.3 659 2094.8 716.5C2172.3 774 2249.7 769 2327.2 730.5C2404.7 692 2482.3 620 2521.2 584L2560 548L2560 373L2521.2 387.5C2482.3 402 2404.7 431 2327.2 476.7C2249.7 522.3 2172.3 584.7 2094.8 536.7C2017.3 488.7 1939.7 330.3 1862 292C1784.3 253.7 1706.7 335.3 1629 337.7C1551.3 340 1473.7 263 1396.2 246.2C1318.7 229.3 1241.3 272.7 1163.8 277.5C1086.3 282.3 1008.7 248.7 931 299C853.3 349.3 775.7 483.7 698 534C620.3 584.3 542.7 550.7 465.2 500.3C387.7 450 310.3 383 232.8 383C155.3 383 77.7 450 38.8 483.5L0 517Z" fill="#3c80ff"></path><path d="M0 1052L38.8 1056.8C77.7 1061.7 155.3 1071.3 232.8 1059.3C310.3 1047.3 387.7 1013.7 465.2 1030.5C542.7 1047.3 620.3 1114.7 698 1097.8C775.7 1081 853.3 980 931 960.8C1008.7 941.7 1086.3 1004.3 1163.8 1021.2C1241.3 1038 1318.7 1009 1396.2 989.7C1473.7 970.3 1551.3 960.7 1629 955.8C1706.7 951 1784.3 951 1862 963C1939.7 975 2017.3 999 2094.8 1027.8C2172.3 1056.7 2249.7 1090.3 2327.2 1083.2C2404.7 1076 2482.3 1028 2521.2 1004L2560 980L2560 546L2521.2 582C2482.3 618 2404.7 690 2327.2 728.5C2249.7 767 2172.3 772 2094.8 714.5C2017.3 657 1939.7 537 1862 515.3C1784.3 493.7 1706.7 570.3 1629 572.7C1551.3 575 1473.7 503 1396.2 471.8C1318.7 440.7 1241.3 450.3 1163.8 433.5C1086.3 416.7 1008.7 373.3 931 421.3C853.3 469.3 775.7 608.7 698 683.2C620.3 757.7 542.7 767.3 465.2 736.2C387.7 705 310.3 633 232.8 633C155.3 633 77.7 705 38.8 741L0 777Z" fill="#0066ff"></path><path d="M0 1196L38.8 1215.2C77.7 1234.3 155.3 1272.7 232.8 1275.2C310.3 1277.7 387.7 1244.3 465.2 1246.8C542.7 1249.3 620.3 1287.7 698 1287.7C775.7 1287.7 853.3 1249.3 931 1249.3C1008.7 1249.3 1086.3 1287.7 1163.8 1290C1241.3 1292.3 1318.7 1258.7 1396.2 1253.8C1473.7 1249 1551.3 1273 1629 1292.2C1706.7 1311.3 1784.3 1325.7 1862 1328C1939.7 1330.3 2017.3 1320.7 2094.8 1311.2C2172.3 1301.7 2249.7 1292.3 2327.2 1280.3C2404.7 1268.3 2482.3 1253.7 2521.2 1246.3L2560 1239L2560 978L2521.2 1002C2482.3 1026 2404.7 1074 2327.2 1081.2C2249.7 1088.3 2172.3 1054.7 2094.8 1025.8C2017.3 997 1939.7 973 1862 961C1784.3 949 1706.7 949 1629 953.8C1551.3 958.7 1473.7 968.3 1396.2 987.7C1318.7 1007 1241.3 1036 1163.8 1019.2C1086.3 1002.3 1008.7 939.7 931 958.8C853.3 978 775.7 1079 698 1095.8C620.3 1112.7 542.7 1045.3 465.2 1028.5C387.7 1011.7 310.3 1045.3 232.8 1057.3C155.3 1069.3 77.7 1059.7 38.8 1054.8L0 1050Z" fill="#0059dd"></path><path d="M0 1441L38.8 1441C77.7 1441 155.3 1441 232.8 1441C310.3 1441 387.7 1441 465.2 1441C542.7 1441 620.3 1441 698 1441C775.7 1441 853.3 1441 931 1441C1008.7 1441 1086.3 1441 1163.8 1441C1241.3 1441 1318.7 1441 1396.2 1441C1473.7 1441 1551.3 1441 1629 1441C1706.7 1441 1784.3 1441 1862 1441C1939.7 1441 2017.3 1441 2094.8 1441C2172.3 1441 2249.7 1441 2327.2 1441C2404.7 1441 2482.3 1441 2521.2 1441L2560 1441L2560 1237L2521.2 1244.3C2482.3 1251.7 2404.7 1266.3 2327.2 1278.3C2249.7 1290.3 2172.3 1299.7 2094.8 1309.2C2017.3 1318.7 1939.7 1328.3 1862 1326C1784.3 1323.7 1706.7 1309.3 1629 1290.2C1551.3 1271 1473.7 1247 1396.2 1251.8C1318.7 1256.7 1241.3 1290.3 1163.8 1288C1086.3 1285.7 1008.7 1247.3 931 1247.3C853.3 1247.3 775.7 1285.7 698 1285.7C620.3 1285.7 542.7 1247.3 465.2 1244.8C387.7 1242.3 310.3 1275.7 232.8 1273.2C155.3 1270.7 77.7 1232.3 38.8 1213.2L0 1194Z" fill="#004cbb"></path></svg>