<?xml version="1.0" encoding="UTF-8" standalone="no" ?>
<!DOCTYPE svg PUBLIC "-//W3C//DTD SVG 1.1//EN" "http://www.w3.org/Graphics/SVG/1.1/DTD/svg11.dtd">
<svg xmlns="http://www.w3.org/2000/svg" xmlns:xlink="http://www.w3.org/1999/xlink" version="1.1" width="640" height="640" viewBox="0 0 640 640" xml:space="preserve">
<desc>Created with Fabric.js 5.3.0</desc>
<defs>
</defs>
<g transform="matrix(1.0502418181 0 0 1.0502418181 230.526872254 465.3827797236)" id="3WmUuPayvy8ZM0C4kttiV"  >
<path style="stroke: rgb(2,32,109); stroke-width: 0; stroke-dasharray: none; stroke-linecap: butt; stroke-dashoffset: 0; stroke-linejoin: miter; stroke-miterlimit: 4; fill: rgb(26,65,148); fill-rule: nonzero; opacity: 1;"  transform=" translate(-138.4279, -138.4279)" d="M 138.4279 0 C 138.4279 0 138.4279 0 138.4279 0 L 138.4279 46.38546 C 87.62047 46.38546 46.38547 87.62048 46.38547 138.4279 C 46.38547 189.23532999999998 87.62048999999999 230.47034 138.42791 230.47034 C 189.23534 230.47034 230.47035 189.23532 230.47035 138.42791 L 276.8558 138.42791 C 276.8558 214.84010999999998 214.84009999999998 276.8558 138.4279 276.8558 C 62.015699999999995 276.8558 0 214.84009999999998 0 138.4279 C 0 62.015699999999995 62.0157 0 138.4279 0 z" stroke-linecap="round" />
</g>
<g transform="matrix(0.8882996135 0 0 0.8882996135 375.9096416196 174.6172254583)" id="lsxy0LzB6WFMkt-HF15e1"  >
<path style="stroke: rgb(2,32,109); stroke-width: 0; stroke-dasharray: none; stroke-linecap: butt; stroke-dashoffset: 0; stroke-linejoin: miter; stroke-miterlimit: 4; fill: rgb(26,65,148); fill-rule: nonzero; opacity: 1;"  transform=" translate(-163.66412, -163.66412)" d="M 163.66412 0 C 254.00671 0 327.32824 73.32153 327.32824 163.66412 C 327.32824 254.00671 254.00671 327.32824 163.66412 327.32824 C 73.32153 327.32824 0 254.00671 0 163.66412 C 0 73.32153 73.32153 0 163.66412 0 z M 54.84181 163.66412 C 54.84181 223.73404 103.59421 272.48643 163.66412 272.48643 C 223.73404 272.48643 272.48643 223.73403 272.48643 163.66411999999997 C 272.48643 103.59419999999997 223.73403 54.84180999999997 163.66411999999997 54.84180999999997 C 103.59419999999997 54.84180999999997 54.84180999999997 103.59420999999998 54.84180999999997 163.66411999999997 z" stroke-linecap="round" />
</g>
<g transform="matrix(0.8882996135 0 0 0.8882996135 409.4731225698 465.3827745474)" id="_dx1Xi8cu4Rfh2dV9CJHT"  >
<path style="stroke: rgb(2,32,109); stroke-width: 0; stroke-dasharray: none; stroke-linecap: butt; stroke-dashoffset: 0; stroke-linejoin: miter; stroke-miterlimit: 4; fill: rgb(0,0,0); fill-rule: nonzero; opacity: 1;"  transform=" translate(0, 0)" d="M 0 -163.66412 C 90.34259 -163.66412 163.66412 -90.34259 163.66412 0 C 163.66412 90.34259 90.34259 163.66412 0 163.66412 C -90.34259 163.66412 -163.66412 90.34259 -163.66412 0 C -163.66412 -90.34259 -90.34259 -163.66412 0 -163.66412 z M -108.82231 0 C -108.82231 60.06992 -60.06991 108.82231 0 108.82231 C 60.06992 108.82231 108.82231 60.06991 108.82231 0 C 108.82231 -60.06992 60.06991 -108.82231 0 -108.82231 C -60.06992 -108.82231 -108.82231 -60.06991 -108.82231 0 z" stroke-linecap="round" />
</g>
<g transform="matrix(0.8882996135 0 0 0.8882996135 247.3086127263 198.9645394963)" id="CLkmXzmB9DfIrGuj6-6ka"  >
<path style="stroke: rgb(107,153,161); stroke-width: 0; stroke-dasharray: none; stroke-linecap: butt; stroke-dashoffset: 0; stroke-linejoin: miter; stroke-miterlimit: 4; fill: rgb(0,0,0); fill-rule: nonzero; opacity: 1;"  transform=" translate(0, 0)" d="M -182.5561 -191.07302 L -127.71428999999998 -191.07302 L -127.71428999999998 136.23121999999998 L 182.55609 136.23120999999998 L 182.55609 191.07301999999999 L -182.5561 191.07301999999999 z" stroke-linecap="round" />
</g>
<g transform="matrix(2.2845864329 0 0 0.7617377751 303.2182569368 465.3827848998)" id="qzo7LXxWTK74P4XjhK5IN"  >
<path style="stroke: rgb(243,165,197); stroke-width: 0; stroke-dasharray: none; stroke-linecap: butt; stroke-dashoffset: 0; stroke-linejoin: miter; stroke-miterlimit: 4; fill: rgb(26,65,148); fill-rule: nonzero; opacity: 1;"  transform=" translate(0, 0)" d="M -31.81818 -31.81818 L 31.81818 -31.81818 L 31.81818 -0.000010000000003174137 L 22.082950000000004 31.818179999999998 L -31.818179999999998 31.818179999999998 z" stroke-linecap="round" />
</g>
</svg>